<svg xmlns="http://www.w3.org/2000/svg" width="1100" height="900" viewBox="0 0 1100 900">
<rect x="0" y="0" width="1100" height="900" fill="#ffffff" />
<defs>
<marker id="curve-arrow-0" markerWidth="10" markerHeight="10" refX="8" refY="5" orient="auto" markerUnits="strokeWidth"><path d="M 0 0 L 10 5 L 0 10 z" fill="#2563eb" /></marker>
<marker id="curve-arrow-1" markerWidth="10" markerHeight="10" refX="8" refY="5" orient="auto" markerUnits="strokeWidth"><path d="M 0 0 L 10 5 L 0 10 z" fill="#e11d48" /></marker>
</defs>
<rect x="70.00" y="670.00" width="160.00" height="160.00" fill="#f8f8f8" stroke="#d0d0d0" stroke-width="1.5" />
<text x="78.00" y="689.20" fill="#222222" font-size="13" font-family="monospace">floor (0,0)</text>
<rect x="70.00" y="510.00" width="160.00" height="160.00" fill="#f8f8f8" stroke="#d0d0d0" stroke-width="1.5" />
<text x="78.00" y="529.20" fill="#222222" font-size="13" font-family="monospace">curve (0,1)</text>
<rect x="70.00" y="350.00" width="160.00" height="160.00" fill="#f8f8f8" stroke="#d0d0d0" stroke-width="1.5" />
<text x="78.00" y="369.20" fill="#222222" font-size="13" font-family="monospace">curve (0,2)</text>
<rect x="230.00" y="670.00" width="160.00" height="160.00" fill="#f8f8f8" stroke="#d0d0d0" stroke-width="1.5" />
<text x="238.00" y="689.20" fill="#222222" font-size="13" font-family="monospace">floor (1,0)</text>
<rect x="230.00" y="510.00" width="160.00" height="160.00" fill="#f8f8f8" stroke="#d0d0d0" stroke-width="1.5" />
<text x="238.00" y="529.20" fill="#222222" font-size="13" font-family="monospace">straight (1,1)</text>
<rect x="230.00" y="350.00" width="160.00" height="160.00" fill="#f8f8f8" stroke="#d0d0d0" stroke-width="1.5" />
<text x="238.00" y="369.20" fill="#222222" font-size="13" font-family="monospace">straight (1,2)</text>
<rect x="390.00" y="670.00" width="160.00" height="160.00" fill="#f8f8f8" stroke="#d0d0d0" stroke-width="1.5" />
<text x="398.00" y="689.20" fill="#222222" font-size="13" font-family="monospace">curve (2,0)</text>
<rect x="390.00" y="510.00" width="160.00" height="160.00" fill="#f8f8f8" stroke="#d0d0d0" stroke-width="1.5" />
<text x="398.00" y="529.20" fill="#222222" font-size="13" font-family="monospace">curve (2,1)</text>
<rect x="390.00" y="350.00" width="160.00" height="160.00" fill="#f8f8f8" stroke="#d0d0d0" stroke-width="1.5" />
<text x="398.00" y="369.20" fill="#222222" font-size="13" font-family="monospace">straight (2,2)</text>
<rect x="550.00" y="670.00" width="160.00" height="160.00" fill="#f8f8f8" stroke="#d0d0d0" stroke-width="1.5" />
<text x="558.00" y="689.20" fill="#222222" font-size="13" font-family="monospace">curve (3,0)</text>
<rect x="550.00" y="510.00" width="160.00" height="160.00" fill="#f8f8f8" stroke="#d0d0d0" stroke-width="1.5" />
<text x="558.00" y="529.20" fill="#222222" font-size="13" font-family="monospace">curve (3,1)</text>
<rect x="550.00" y="350.00" width="160.00" height="160.00" fill="#f8f8f8" stroke="#d0d0d0" stroke-width="1.5" />
<text x="558.00" y="369.20" fill="#222222" font-size="13" font-family="monospace">straight (3,2)</text>
<rect x="710.00" y="670.00" width="160.00" height="160.00" fill="#f8f8f8" stroke="#d0d0d0" stroke-width="1.5" />
<text x="718.00" y="689.20" fill="#222222" font-size="13" font-family="monospace">floor (4,0)</text>
<rect x="710.00" y="510.00" width="160.00" height="160.00" fill="#f8f8f8" stroke="#d0d0d0" stroke-width="1.5" />
<text x="718.00" y="529.20" fill="#222222" font-size="13" font-family="monospace">straight (4,1)</text>
<rect x="710.00" y="350.00" width="160.00" height="160.00" fill="#f8f8f8" stroke="#d0d0d0" stroke-width="1.5" />
<text x="718.00" y="369.20" fill="#222222" font-size="13" font-family="monospace">straight (4,2)</text>
<rect x="870.00" y="670.00" width="160.00" height="160.00" fill="#f8f8f8" stroke="#d0d0d0" stroke-width="1.5" />
<text x="878.00" y="689.20" fill="#222222" font-size="13" font-family="monospace">floor (5,0)</text>
<rect x="870.00" y="510.00" width="160.00" height="160.00" fill="#f8f8f8" stroke="#d0d0d0" stroke-width="1.5" />
<text x="878.00" y="529.20" fill="#222222" font-size="13" font-family="monospace">curve (5,1)</text>
<rect x="870.00" y="350.00" width="160.00" height="160.00" fill="#f8f8f8" stroke="#d0d0d0" stroke-width="1.5" />
<text x="878.00" y="369.20" fill="#222222" font-size="13" font-family="monospace">curve (5,2)</text>
<polyline points="150.00,510.00 150.05,514.24 150.19,518.36 150.43,522.36 150.77,526.23 151.20,529.98 151.73,533.60 152.37,537.11 153.10,540.49 153.93,543.76 154.87,546.90 155.91,549.93 157.05,552.84 158.30,555.63 159.65,558.31 161.11,560.87 162.67,563.32 164.34,565.65 166.12,567.88 168.01,569.99 170.01,571.99 172.12,573.88 174.35,575.66 176.68,577.33 179.13,578.89 181.69,580.35 184.37,581.70 187.16,582.95 190.07,584.09 193.10,585.13 196.24,586.07 199.51,586.90 202.89,587.63 206.40,588.27 210.02,588.80 213.77,589.23 217.64,589.57 221.64,589.81 225.76,589.95 230.00,590.00" fill="none" stroke="#facc15" stroke-width="5" stroke-linecap="round" stroke-linejoin="round" />
<polyline points="230.00,430.00 225.76,430.05 221.64,430.19 217.64,430.43 213.77,430.77 210.02,431.20 206.40,431.73 202.89,432.37 199.51,433.10 196.24,433.93 193.10,434.87 190.07,435.91 187.16,437.05 184.37,438.30 181.69,439.65 179.13,441.11 176.68,442.67 174.35,444.34 172.12,446.12 170.01,448.01 168.01,450.01 166.12,452.12 164.34,454.35 162.67,456.68 161.11,459.13 159.65,461.69 158.30,464.37 157.05,467.16 155.91,470.07 154.87,473.10 153.93,476.24 153.10,479.51 152.37,482.89 151.73,486.40 151.20,490.02 150.77,493.77 150.43,497.64 150.19,501.64 150.05,505.76 150.00,510.00" fill="none" stroke="#facc15" stroke-width="5" stroke-linecap="round" stroke-linejoin="round" />
<polyline points="390.00,590.00 386.85,590.00 383.54,590.00 380.10,590.00 376.52,590.00 372.81,590.00 368.99,590.00 365.06,590.00 361.03,590.00 356.90,590.00 352.69,590.00 348.40,590.00 344.05,590.00 339.63,590.00 335.16,590.00 330.65,590.00 326.10,590.00 321.52,590.00 316.92,590.00 312.31,590.00 307.69,590.00 303.08,590.00 298.48,590.00 293.90,590.00 289.35,590.00 284.84,590.00 280.37,590.00 275.95,590.00 271.60,590.00 267.31,590.00 263.10,590.00 258.97,590.00 254.94,590.00 251.01,590.00 247.19,590.00 243.48,590.00 239.90,590.00 236.46,590.00 233.15,590.00 230.00,590.00" fill="none" stroke="#facc15" stroke-width="5" stroke-linecap="round" stroke-linejoin="round" />
<polyline points="390.00,430.00 386.85,430.00 383.54,430.00 380.10,430.00 376.52,430.00 372.81,430.00 368.99,430.00 365.06,430.00 361.03,430.00 356.90,430.00 352.69,430.00 348.40,430.00 344.05,430.00 339.63,430.00 335.16,430.00 330.65,430.00 326.10,430.00 321.52,430.00 316.92,430.00 312.31,430.00 307.69,430.00 303.08,430.00 298.48,430.00 293.90,430.00 289.35,430.00 284.84,430.00 280.37,430.00 275.95,430.00 271.60,430.00 267.31,430.00 263.10,430.00 258.97,430.00 254.94,430.00 251.01,430.00 247.19,430.00 243.48,430.00 239.90,430.00 236.46,430.00 233.15,430.00 230.00,430.00" fill="none" stroke="#facc15" stroke-width="5" stroke-linecap="round" stroke-linejoin="round" />
<polyline points="470.00,670.00 470.05,674.24 470.19,678.36 470.43,682.36 470.77,686.23 471.20,689.98 471.73,693.60 472.37,697.11 473.10,700.49 473.93,703.76 474.87,706.90 475.91,709.93 477.05,712.84 478.30,715.63 479.65,718.31 481.11,720.87 482.67,723.32 484.34,725.65 486.12,727.88 488.01,729.99 490.01,731.99 492.12,733.88 494.35,735.66 496.68,737.33 499.13,738.89 501.69,740.35 504.37,741.70 507.16,742.95 510.07,744.09 513.10,745.13 516.24,746.07 519.51,746.90 522.89,747.63 526.40,748.27 530.02,748.80 533.77,749.23 537.64,749.57 541.64,749.81 545.76,749.95 550.00,750.00" fill="none" stroke="#facc15" stroke-width="5" stroke-linecap="round" stroke-linejoin="round" />
<polyline points="470.00,670.00 469.95,665.76 469.81,661.64 469.57,657.64 469.23,653.77 468.80,650.02 468.27,646.40 467.63,642.89 466.90,639.51 466.07,636.24 465.13,633.10 464.09,630.07 462.95,627.16 461.70,624.37 460.35,621.69 458.89,619.13 457.33,616.68 455.66,614.35 453.88,612.12 451.99,610.01 449.99,608.01 447.88,606.12 445.65,604.34 443.32,602.67 440.87,601.11 438.31,599.65 435.63,598.30 432.84,597.05 429.93,595.91 426.90,594.87 423.76,593.93 420.49,593.10 417.11,592.37 413.60,591.73 409.98,591.20 406.23,590.77 402.36,590.43 398.36,590.19 394.24,590.05 390.00,590.00" fill="none" stroke="#facc15" stroke-width="5" stroke-linecap="round" stroke-linejoin="round" />
<polyline points="550.00,430.00 546.85,430.00 543.54,430.00 540.10,430.00 536.52,430.00 532.81,430.00 528.99,430.00 525.06,430.00 521.03,430.00 516.90,430.00 512.69,430.00 508.40,430.00 504.05,430.00 499.63,430.00 495.16,430.00 490.65,430.00 486.10,430.00 481.52,430.00 476.92,430.00 472.31,430.00 467.69,430.00 463.08,430.00 458.48,430.00 453.90,430.00 449.35,430.00 444.84,430.00 440.37,430.00 435.95,430.00 431.60,430.00 427.31,430.00 423.10,430.00 418.97,430.00 414.94,430.00 411.01,430.00 407.19,430.00 403.48,430.00 399.90,430.00 396.46,430.00 393.15,430.00 390.00,430.00" fill="none" stroke="#facc15" stroke-width="5" stroke-linecap="round" stroke-linejoin="round" />
<polyline points="550.00,750.00 554.24,749.95 558.36,749.81 562.36,749.57 566.23,749.23 569.98,748.80 573.60,748.27 577.11,747.63 580.49,746.90 583.76,746.07 586.90,745.13 589.93,744.09 592.84,742.95 595.63,741.70 598.31,740.35 600.87,738.89 603.32,737.33 605.65,735.66 607.88,733.88 609.99,731.99 611.99,729.99 613.88,727.88 615.66,725.65 617.33,723.32 618.89,720.87 620.35,718.31 621.70,715.63 622.95,712.84 624.09,709.93 625.13,706.90 626.07,703.76 626.90,700.49 627.63,697.11 628.27,693.60 628.80,689.98 629.23,686.23 629.57,682.36 629.81,678.36 629.95,674.24 630.00,670.00" fill="none" stroke="#facc15" stroke-width="5" stroke-linecap="round" stroke-linejoin="round" />
<polyline points="710.00,590.00 705.76,590.05 701.64,590.19 697.64,590.43 693.77,590.77 690.02,591.20 686.40,591.73 682.89,592.37 679.51,593.10 676.24,593.93 673.10,594.87 670.07,595.91 667.16,597.05 664.37,598.30 661.69,599.65 659.13,601.11 656.68,602.67 654.35,604.34 652.12,606.12 650.01,608.01 648.01,610.01 646.12,612.12 644.34,614.35 642.67,616.68 641.11,619.13 639.65,621.69 638.30,624.37 637.05,627.16 635.91,630.07 634.87,633.10 633.93,636.24 633.10,639.51 632.37,642.89 631.73,646.40 631.20,650.02 630.77,653.77 630.43,657.64 630.19,661.64 630.05,665.76 630.00,670.00" fill="none" stroke="#facc15" stroke-width="5" stroke-linecap="round" stroke-linejoin="round" />
<polyline points="710.00,430.00 706.85,430.00 703.54,430.00 700.10,430.00 696.52,430.00 692.81,430.00 688.99,430.00 685.06,430.00 681.03,430.00 676.90,430.00 672.69,430.00 668.40,430.00 664.05,430.00 659.63,430.00 655.16,430.00 650.65,430.00 646.10,430.00 641.52,430.00 636.92,430.00 632.31,430.00 627.69,430.00 623.08,430.00 618.48,430.00 613.90,430.00 609.35,430.00 604.84,430.00 600.37,430.00 595.95,430.00 591.60,430.00 587.31,430.00 583.10,430.00 578.97,430.00 574.94,430.00 571.01,430.00 567.19,430.00 563.48,430.00 559.90,430.00 556.46,430.00 553.15,430.00 550.00,430.00" fill="none" stroke="#facc15" stroke-width="5" stroke-linecap="round" stroke-linejoin="round" />
<polyline points="870.00,590.00 866.85,590.00 863.54,590.00 860.10,590.00 856.52,590.00 852.81,590.00 848.99,590.00 845.06,590.00 841.03,590.00 836.90,590.00 832.69,590.00 828.40,590.00 824.05,590.00 819.63,590.00 815.16,590.00 810.65,590.00 806.10,590.00 801.52,590.00 796.92,590.00 792.31,590.00 787.69,590.00 783.08,590.00 778.48,590.00 773.90,590.00 769.35,590.00 764.84,590.00 760.37,590.00 755.95,590.00 751.60,590.00 747.31,590.00 743.10,590.00 738.97,590.00 734.94,590.00 731.01,590.00 727.19,590.00 723.48,590.00 719.90,590.00 716.46,590.00 713.15,590.00 710.00,590.00" fill="none" stroke="#facc15" stroke-width="5" stroke-linecap="round" stroke-linejoin="round" />
<polyline points="870.00,430.00 866.85,430.00 863.54,430.00 860.10,430.00 856.52,430.00 852.81,430.00 848.99,430.00 845.06,430.00 841.03,430.00 836.90,430.00 832.69,430.00 828.40,430.00 824.05,430.00 819.63,430.00 815.16,430.00 810.65,430.00 806.10,430.00 801.52,430.00 796.92,430.00 792.31,430.00 787.69,430.00 783.08,430.00 778.48,430.00 773.90,430.00 769.35,430.00 764.84,430.00 760.37,430.00 755.95,430.00 751.60,430.00 747.31,430.00 743.10,430.00 738.97,430.00 734.94,430.00 731.01,430.00 727.19,430.00 723.48,430.00 719.90,430.00 716.46,430.00 713.15,430.00 710.00,430.00" fill="none" stroke="#facc15" stroke-width="5" stroke-linecap="round" stroke-linejoin="round" />
<polyline points="870.00,590.00 874.24,589.95 878.36,589.81 882.36,589.57 886.23,589.23 889.98,588.80 893.60,588.27 897.11,587.63 900.49,586.90 903.76,586.07 906.90,585.13 909.93,584.09 912.84,582.95 915.63,581.70 918.31,580.35 920.87,578.89 923.32,577.33 925.65,575.66 927.88,573.88 929.99,571.99 931.99,569.99 933.88,567.88 935.66,565.65 937.33,563.32 938.89,560.87 940.35,558.31 941.70,555.63 942.95,552.84 944.09,549.93 945.13,546.90 946.07,543.76 946.90,540.49 947.63,537.11 948.27,533.60 948.80,529.98 949.23,526.23 949.57,522.36 949.81,518.36 949.95,514.24 950.00,510.00" fill="none" stroke="#facc15" stroke-width="5" stroke-linecap="round" stroke-linejoin="round" />
<polyline points="950.00,510.00 949.95,505.76 949.81,501.64 949.57,497.64 949.23,493.77 948.80,490.02 948.27,486.40 947.63,482.89 946.90,479.51 946.07,476.24 945.13,473.10 944.09,470.07 942.95,467.16 941.70,464.37 940.35,461.69 938.89,459.13 937.33,456.68 935.66,454.35 933.88,452.12 931.99,450.01 929.99,448.01 927.88,446.12 925.65,444.34 923.32,442.67 920.87,441.11 918.31,439.65 915.63,438.30 912.84,437.05 909.93,435.91 906.90,434.87 903.76,433.93 900.49,433.10 897.11,432.37 893.60,431.73 889.98,431.20 886.23,430.77 882.36,430.43 878.36,430.19 874.24,430.05 870.00,430.00" fill="none" stroke="#facc15" stroke-width="5" stroke-linecap="round" stroke-linejoin="round" />
<polyline points="118.00,510.00 118.00,590.00 150.00,622.00 230.00,622.00" fill="none" stroke="#9ca3af" stroke-width="1.5" stroke-dasharray="5 4" />
<circle cx="118.00" cy="510.00" r="4.00" fill="#16a34a" />
<circle cx="118.00" cy="590.00" r="3.00" fill="#111827" />
<circle cx="150.00" cy="622.00" r="3.00" fill="#111827" />
<circle cx="230.00" cy="622.00" r="4.00" fill="#dc2626" />
<polyline points="230.00,558.00 198.00,558.00 182.00,542.00 182.00,510.00" fill="none" stroke="#9ca3af" stroke-width="1.5" stroke-dasharray="5 4" />
<circle cx="230.00" cy="558.00" r="4.00" fill="#16a34a" />
<circle cx="198.00" cy="558.00" r="3.00" fill="#111827" />
<circle cx="182.00" cy="542.00" r="3.00" fill="#111827" />
<circle cx="182.00" cy="510.00" r="4.00" fill="#dc2626" />
<polyline points="230.00,398.00 150.00,398.00 118.00,430.00 118.00,510.00" fill="none" stroke="#9ca3af" stroke-width="1.5" stroke-dasharray="5 4" />
<circle cx="230.00" cy="398.00" r="4.00" fill="#16a34a" />
<circle cx="150.00" cy="398.00" r="3.00" fill="#111827" />
<circle cx="118.00" cy="430.00" r="3.00" fill="#111827" />
<circle cx="118.00" cy="510.00" r="4.00" fill="#dc2626" />
<polyline points="182.00,510.00 182.00,478.00 198.00,462.00 230.00,462.00" fill="none" stroke="#9ca3af" stroke-width="1.5" stroke-dasharray="5 4" />
<circle cx="182.00" cy="510.00" r="4.00" fill="#16a34a" />
<circle cx="182.00" cy="478.00" r="3.00" fill="#111827" />
<circle cx="198.00" cy="462.00" r="3.00" fill="#111827" />
<circle cx="230.00" cy="462.00" r="4.00" fill="#dc2626" />
<polyline points="390.00,558.00 350.00,558.00 270.00,558.00 230.00,558.00" fill="none" stroke="#9ca3af" stroke-width="1.5" stroke-dasharray="5 4" />
<circle cx="390.00" cy="558.00" r="4.00" fill="#16a34a" />
<circle cx="350.00" cy="558.00" r="3.00" fill="#111827" />
<circle cx="270.00" cy="558.00" r="3.00" fill="#111827" />
<circle cx="230.00" cy="558.00" r="4.00" fill="#dc2626" />
<polyline points="230.00,622.00 270.00,622.00 350.00,622.00 390.00,622.00" fill="none" stroke="#9ca3af" stroke-width="1.5" stroke-dasharray="5 4" />
<circle cx="230.00" cy="622.00" r="4.00" fill="#16a34a" />
<circle cx="270.00" cy="622.00" r="3.00" fill="#111827" />
<circle cx="350.00" cy="622.00" r="3.00" fill="#111827" />
<circle cx="390.00" cy="622.00" r="4.00" fill="#dc2626" />
<polyline points="390.00,398.00 350.00,398.00 270.00,398.00 230.00,398.00" fill="none" stroke="#9ca3af" stroke-width="1.5" stroke-dasharray="5 4" />
<circle cx="390.00" cy="398.00" r="4.00" fill="#16a34a" />
<circle cx="350.00" cy="398.00" r="3.00" fill="#111827" />
<circle cx="270.00" cy="398.00" r="3.00" fill="#111827" />
<circle cx="230.00" cy="398.00" r="4.00" fill="#dc2626" />
<polyline points="230.00,462.00 270.00,462.00 350.00,462.00 390.00,462.00" fill="none" stroke="#9ca3af" stroke-width="1.5" stroke-dasharray="5 4" />
<circle cx="230.00" cy="462.00" r="4.00" fill="#16a34a" />
<circle cx="270.00" cy="462.00" r="3.00" fill="#111827" />
<circle cx="350.00" cy="462.00" r="3.00" fill="#111827" />
<circle cx="390.00" cy="462.00" r="4.00" fill="#dc2626" />
<polyline points="438.00,670.00 438.00,750.00 470.00,782.00 550.00,782.00" fill="none" stroke="#9ca3af" stroke-width="1.5" stroke-dasharray="5 4" />
<circle cx="438.00" cy="670.00" r="4.00" fill="#16a34a" />
<circle cx="438.00" cy="750.00" r="3.00" fill="#111827" />
<circle cx="470.00" cy="782.00" r="3.00" fill="#111827" />
<circle cx="550.00" cy="782.00" r="4.00" fill="#dc2626" />
<polyline points="550.00,718.00 518.00,718.00 502.00,702.00 502.00,670.00" fill="none" stroke="#9ca3af" stroke-width="1.5" stroke-dasharray="5 4" />
<circle cx="550.00" cy="718.00" r="4.00" fill="#16a34a" />
<circle cx="518.00" cy="718.00" r="3.00" fill="#111827" />
<circle cx="502.00" cy="702.00" r="3.00" fill="#111827" />
<circle cx="502.00" cy="670.00" r="4.00" fill="#dc2626" />
<polyline points="502.00,670.00 502.00,590.00 470.00,558.00 390.00,558.00" fill="none" stroke="#9ca3af" stroke-width="1.5" stroke-dasharray="5 4" />
<circle cx="502.00" cy="670.00" r="4.00" fill="#16a34a" />
<circle cx="502.00" cy="590.00" r="3.00" fill="#111827" />
<circle cx="470.00" cy="558.00" r="3.00" fill="#111827" />
<circle cx="390.00" cy="558.00" r="4.00" fill="#dc2626" />
<polyline points="390.00,622.00 422.00,622.00 438.00,638.00 438.00,670.00" fill="none" stroke="#9ca3af" stroke-width="1.5" stroke-dasharray="5 4" />
<circle cx="390.00" cy="622.00" r="4.00" fill="#16a34a" />
<circle cx="422.00" cy="622.00" r="3.00" fill="#111827" />
<circle cx="438.00" cy="638.00" r="3.00" fill="#111827" />
<circle cx="438.00" cy="670.00" r="4.00" fill="#dc2626" />
<polyline points="550.00,398.00 510.00,398.00 430.00,398.00 390.00,398.00" fill="none" stroke="#9ca3af" stroke-width="1.5" stroke-dasharray="5 4" />
<circle cx="550.00" cy="398.00" r="4.00" fill="#16a34a" />
<circle cx="510.00" cy="398.00" r="3.00" fill="#111827" />
<circle cx="430.00" cy="398.00" r="3.00" fill="#111827" />
<circle cx="390.00" cy="398.00" r="4.00" fill="#dc2626" />
<polyline points="390.00,462.00 430.00,462.00 510.00,462.00 550.00,462.00" fill="none" stroke="#9ca3af" stroke-width="1.5" stroke-dasharray="5 4" />
<circle cx="390.00" cy="462.00" r="4.00" fill="#16a34a" />
<circle cx="430.00" cy="462.00" r="3.00" fill="#111827" />
<circle cx="510.00" cy="462.00" r="3.00" fill="#111827" />
<circle cx="550.00" cy="462.00" r="4.00" fill="#dc2626" />
<polyline points="550.00,782.00 630.00,782.00 662.00,750.00 662.00,670.00" fill="none" stroke="#9ca3af" stroke-width="1.5" stroke-dasharray="5 4" />
<circle cx="550.00" cy="782.00" r="4.00" fill="#16a34a" />
<circle cx="630.00" cy="782.00" r="3.00" fill="#111827" />
<circle cx="662.00" cy="750.00" r="3.00" fill="#111827" />
<circle cx="662.00" cy="670.00" r="4.00" fill="#dc2626" />
<polyline points="598.00,670.00 598.00,702.00 582.00,718.00 550.00,718.00" fill="none" stroke="#9ca3af" stroke-width="1.5" stroke-dasharray="5 4" />
<circle cx="598.00" cy="670.00" r="4.00" fill="#16a34a" />
<circle cx="598.00" cy="702.00" r="3.00" fill="#111827" />
<circle cx="582.00" cy="718.00" r="3.00" fill="#111827" />
<circle cx="550.00" cy="718.00" r="4.00" fill="#dc2626" />
<polyline points="710.00,558.00 630.00,558.00 598.00,590.00 598.00,670.00" fill="none" stroke="#9ca3af" stroke-width="1.5" stroke-dasharray="5 4" />
<circle cx="710.00" cy="558.00" r="4.00" fill="#16a34a" />
<circle cx="630.00" cy="558.00" r="3.00" fill="#111827" />
<circle cx="598.00" cy="590.00" r="3.00" fill="#111827" />
<circle cx="598.00" cy="670.00" r="4.00" fill="#dc2626" />
<polyline points="662.00,670.00 662.00,638.00 678.00,622.00 710.00,622.00" fill="none" stroke="#9ca3af" stroke-width="1.5" stroke-dasharray="5 4" />
<circle cx="662.00" cy="670.00" r="4.00" fill="#16a34a" />
<circle cx="662.00" cy="638.00" r="3.00" fill="#111827" />
<circle cx="678.00" cy="622.00" r="3.00" fill="#111827" />
<circle cx="710.00" cy="622.00" r="4.00" fill="#dc2626" />
<polyline points="710.00,398.00 670.00,398.00 590.00,398.00 550.00,398.00" fill="none" stroke="#9ca3af" stroke-width="1.5" stroke-dasharray="5 4" />
<circle cx="710.00" cy="398.00" r="4.00" fill="#16a34a" />
<circle cx="670.00" cy="398.00" r="3.00" fill="#111827" />
<circle cx="590.00" cy="398.00" r="3.00" fill="#111827" />
<circle cx="550.00" cy="398.00" r="4.00" fill="#dc2626" />
<polyline points="550.00,462.00 590.00,462.00 670.00,462.00 710.00,462.00" fill="none" stroke="#9ca3af" stroke-width="1.5" stroke-dasharray="5 4" />
<circle cx="550.00" cy="462.00" r="4.00" fill="#16a34a" />
<circle cx="590.00" cy="462.00" r="3.00" fill="#111827" />
<circle cx="670.00" cy="462.00" r="3.00" fill="#111827" />
<circle cx="710.00" cy="462.00" r="4.00" fill="#dc2626" />
<polyline points="870.00,558.00 830.00,558.00 750.00,558.00 710.00,558.00" fill="none" stroke="#9ca3af" stroke-width="1.5" stroke-dasharray="5 4" />
<circle cx="870.00" cy="558.00" r="4.00" fill="#16a34a" />
<circle cx="830.00" cy="558.00" r="3.00" fill="#111827" />
<circle cx="750.00" cy="558.00" r="3.00" fill="#111827" />
<circle cx="710.00" cy="558.00" r="4.00" fill="#dc2626" />
<polyline points="710.00,622.00 750.00,622.00 830.00,622.00 870.00,622.00" fill="none" stroke="#9ca3af" stroke-width="1.5" stroke-dasharray="5 4" />
<circle cx="710.00" cy="622.00" r="4.00" fill="#16a34a" />
<circle cx="750.00" cy="622.00" r="3.00" fill="#111827" />
<circle cx="830.00" cy="622.00" r="3.00" fill="#111827" />
<circle cx="870.00" cy="622.00" r="4.00" fill="#dc2626" />
<polyline points="870.00,398.00 830.00,398.00 750.00,398.00 710.00,398.00" fill="none" stroke="#9ca3af" stroke-width="1.5" stroke-dasharray="5 4" />
<circle cx="870.00" cy="398.00" r="4.00" fill="#16a34a" />
<circle cx="830.00" cy="398.00" r="3.00" fill="#111827" />
<circle cx="750.00" cy="398.00" r="3.00" fill="#111827" />
<circle cx="710.00" cy="398.00" r="4.00" fill="#dc2626" />
<polyline points="710.00,462.00 750.00,462.00 830.00,462.00 870.00,462.00" fill="none" stroke="#9ca3af" stroke-width="1.5" stroke-dasharray="5 4" />
<circle cx="710.00" cy="462.00" r="4.00" fill="#16a34a" />
<circle cx="750.00" cy="462.00" r="3.00" fill="#111827" />
<circle cx="830.00" cy="462.00" r="3.00" fill="#111827" />
<circle cx="870.00" cy="462.00" r="4.00" fill="#dc2626" />
<polyline points="870.00,622.00 950.00,622.00 982.00,590.00 982.00,510.00" fill="none" stroke="#9ca3af" stroke-width="1.5" stroke-dasharray="5 4" />
<circle cx="870.00" cy="622.00" r="4.00" fill="#16a34a" />
<circle cx="950.00" cy="622.00" r="3.00" fill="#111827" />
<circle cx="982.00" cy="590.00" r="3.00" fill="#111827" />
<circle cx="982.00" cy="510.00" r="4.00" fill="#dc2626" />
<polyline points="918.00,510.00 918.00,542.00 902.00,558.00 870.00,558.00" fill="none" stroke="#9ca3af" stroke-width="1.5" stroke-dasharray="5 4" />
<circle cx="918.00" cy="510.00" r="4.00" fill="#16a34a" />
<circle cx="918.00" cy="542.00" r="3.00" fill="#111827" />
<circle cx="902.00" cy="558.00" r="3.00" fill="#111827" />
<circle cx="870.00" cy="558.00" r="4.00" fill="#dc2626" />
<polyline points="982.00,510.00 982.00,430.00 950.00,398.00 870.00,398.00" fill="none" stroke="#9ca3af" stroke-width="1.5" stroke-dasharray="5 4" />
<circle cx="982.00" cy="510.00" r="4.00" fill="#16a34a" />
<circle cx="982.00" cy="430.00" r="3.00" fill="#111827" />
<circle cx="950.00" cy="398.00" r="3.00" fill="#111827" />
<circle cx="870.00" cy="398.00" r="4.00" fill="#dc2626" />
<polyline points="870.00,462.00 902.00,462.00 918.00,478.00 918.00,510.00" fill="none" stroke="#9ca3af" stroke-width="1.5" stroke-dasharray="5 4" />
<circle cx="870.00" cy="462.00" r="4.00" fill="#16a34a" />
<circle cx="902.00" cy="462.00" r="3.00" fill="#111827" />
<circle cx="918.00" cy="478.00" r="3.00" fill="#111827" />
<circle cx="918.00" cy="510.00" r="4.00" fill="#dc2626" />
<polyline points="118.00,510.00 118.06,516.06 118.25,521.93 118.58,527.62 119.03,533.12 119.61,538.44 120.33,543.57 121.19,548.53 122.18,553.31 123.31,557.91 124.58,562.34 126.00,566.60 127.55,570.68 129.26,574.59 131.11,578.34 133.11,581.92 135.26,585.33 137.57,588.58 140.02,591.67 142.64,594.60 145.40,597.36 148.33,599.98 151.42,602.43 154.67,604.74 158.08,606.89 161.66,608.89 165.41,610.74 169.32,612.45 173.40,614.00 177.66,615.42 182.09,616.69 186.69,617.82 191.47,618.81 196.43,619.67 201.56,620.39 206.88,620.97 212.38,621.42 218.07,621.75 223.94,621.94 230.00,622.00" fill="none" stroke="#2563eb" stroke-width="4" stroke-linecap="round" stroke-linejoin="round" marker-end="url(#curve-arrow-0)" />
<polyline points="230.00,398.00 223.94,398.06 218.07,398.25 212.38,398.58 206.88,399.03 201.56,399.61 196.43,400.33 191.47,401.19 186.69,402.18 182.09,403.31 177.66,404.58 173.40,406.00 169.32,407.55 165.41,409.26 161.66,411.11 158.08,413.11 154.67,415.26 151.42,417.57 148.33,420.02 145.40,422.64 142.64,425.40 140.02,428.33 137.57,431.42 135.26,434.67 133.11,438.08 131.11,441.66 129.26,445.41 127.55,449.32 126.00,453.40 124.58,457.66 123.31,462.09 122.18,466.69 121.19,471.47 120.33,476.43 119.61,481.56 119.03,486.88 118.58,492.38 118.25,498.07 118.06,503.94 118.00,510.00" fill="none" stroke="#2563eb" stroke-width="4" stroke-linecap="round" stroke-linejoin="round" marker-end="url(#curve-arrow-0)" />
<polyline points="230.00,622.00 233.15,622.00 236.46,622.00 239.90,622.00 243.48,622.00 247.19,622.00 251.01,622.00 254.94,622.00 258.97,622.00 263.10,622.00 267.31,622.00 271.60,622.00 275.95,622.00 280.37,622.00 284.84,622.00 289.35,622.00 293.90,622.00 298.48,622.00 303.08,622.00 307.69,622.00 312.31,622.00 316.92,622.00 321.52,622.00 326.10,622.00 330.65,622.00 335.16,622.00 339.63,622.00 344.05,622.00 348.40,622.00 352.69,622.00 356.90,622.00 361.03,622.00 365.06,622.00 368.99,622.00 372.81,622.00 376.52,622.00 380.10,622.00 383.54,622.00 386.85,622.00 390.00,622.00" fill="none" stroke="#2563eb" stroke-width="4" stroke-linecap="round" stroke-linejoin="round" marker-end="url(#curve-arrow-0)" />
<polyline points="390.00,398.00 386.85,398.00 383.54,398.00 380.10,398.00 376.52,398.00 372.81,398.00 368.99,398.00 365.06,398.00 361.03,398.00 356.90,398.00 352.69,398.00 348.40,398.00 344.05,398.00 339.63,398.00 335.16,398.00 330.65,398.00 326.10,398.00 321.52,398.00 316.92,398.00 312.31,398.00 307.69,398.00 303.08,398.00 298.48,398.00 293.90,398.00 289.35,398.00 284.84,398.00 280.37,398.00 275.95,398.00 271.60,398.00 267.31,398.00 263.10,398.00 258.97,398.00 254.94,398.00 251.01,398.00 247.19,398.00 243.48,398.00 239.90,398.00 236.46,398.00 233.15,398.00 230.00,398.00" fill="none" stroke="#2563eb" stroke-width="4" stroke-linecap="round" stroke-linejoin="round" marker-end="url(#curve-arrow-0)" />
<polyline points="438.00,670.00 438.06,676.06 438.25,681.93 438.58,687.62 439.03,693.12 439.61,698.44 440.33,703.57 441.19,708.53 442.18,713.31 443.31,717.91 444.58,722.34 446.00,726.60 447.55,730.68 449.26,734.59 451.11,738.34 453.11,741.92 455.26,745.33 457.57,748.58 460.02,751.67 462.64,754.60 465.40,757.36 468.33,759.98 471.42,762.43 474.67,764.74 478.08,766.89 481.66,768.89 485.41,770.74 489.32,772.45 493.40,774.00 497.66,775.42 502.09,776.69 506.69,777.82 511.47,778.81 516.43,779.67 521.56,780.39 526.88,780.97 532.38,781.42 538.07,781.75 543.94,781.94 550.00,782.00" fill="none" stroke="#2563eb" stroke-width="4" stroke-linecap="round" stroke-linejoin="round" marker-end="url(#curve-arrow-0)" />
<polyline points="390.00,622.00 392.43,622.03 394.80,622.13 397.10,622.28 399.34,622.50 401.52,622.79 403.63,623.14 405.68,623.55 407.67,624.02 409.60,624.56 411.46,625.16 413.26,625.82 414.99,626.54 416.67,627.33 418.28,628.19 419.82,629.10 421.31,630.08 422.73,631.12 424.08,632.22 425.38,633.39 426.61,634.62 427.78,635.92 428.88,637.27 429.92,638.69 430.90,640.18 431.81,641.72 432.67,643.33 433.46,645.01 434.18,646.74 434.84,648.54 435.44,650.40 435.98,652.33 436.45,654.32 436.86,656.37 437.21,658.48 437.50,660.66 437.72,662.90 437.87,665.20 437.97,667.57 438.00,670.00" fill="none" stroke="#2563eb" stroke-width="4" stroke-linecap="round" stroke-linejoin="round" marker-end="url(#curve-arrow-0)" />
<polyline points="550.00,398.00 546.85,398.00 543.54,398.00 540.10,398.00 536.52,398.00 532.81,398.00 528.99,398.00 525.06,398.00 521.03,398.00 516.90,398.00 512.69,398.00 508.40,398.00 504.05,398.00 499.63,398.00 495.16,398.00 490.65,398.00 486.10,398.00 481.52,398.00 476.92,398.00 472.31,398.00 467.69,398.00 463.08,398.00 458.48,398.00 453.90,398.00 449.35,398.00 444.84,398.00 440.37,398.00 435.95,398.00 431.60,398.00 427.31,398.00 423.10,398.00 418.97,398.00 414.94,398.00 411.01,398.00 407.19,398.00 403.48,398.00 399.90,398.00 396.46,398.00 393.15,398.00 390.00,398.00" fill="none" stroke="#2563eb" stroke-width="4" stroke-linecap="round" stroke-linejoin="round" marker-end="url(#curve-arrow-0)" />
<polyline points="550.00,782.00 556.06,781.94 561.93,781.75 567.62,781.42 573.12,780.97 578.44,780.39 583.57,779.67 588.53,778.81 593.31,777.82 597.91,776.69 602.34,775.42 606.60,774.00 610.68,772.45 614.59,770.74 618.34,768.89 621.92,766.89 625.33,764.74 628.58,762.43 631.67,759.98 634.60,757.36 637.36,754.60 639.98,751.67 642.43,748.58 644.74,745.33 646.89,741.92 648.89,738.34 650.74,734.59 652.45,730.68 654.00,726.60 655.42,722.34 656.69,717.91 657.82,713.31 658.81,708.53 659.67,703.57 660.39,698.44 660.97,693.12 661.42,687.62 661.75,681.93 661.94,676.06 662.00,670.00" fill="none" stroke="#2563eb" stroke-width="4" stroke-linecap="round" stroke-linejoin="round" marker-end="url(#curve-arrow-0)" />
<polyline points="662.00,670.00 662.03,667.57 662.13,665.20 662.28,662.90 662.50,660.66 662.79,658.48 663.14,656.37 663.55,654.32 664.02,652.33 664.56,650.40 665.16,648.54 665.82,646.74 666.54,645.01 667.33,643.33 668.19,641.72 669.10,640.18 670.08,638.69 671.12,637.27 672.22,635.92 673.39,634.62 674.62,633.39 675.92,632.22 677.27,631.12 678.69,630.08 680.18,629.10 681.72,628.19 683.33,627.33 685.01,626.54 686.74,625.82 688.54,625.16 690.40,624.56 692.33,624.02 694.32,623.55 696.37,623.14 698.48,622.79 700.66,622.50 702.90,622.28 705.20,622.13 707.57,622.03 710.00,622.00" fill="none" stroke="#2563eb" stroke-width="4" stroke-linecap="round" stroke-linejoin="round" marker-end="url(#curve-arrow-0)" />
<polyline points="710.00,398.00 706.85,398.00 703.54,398.00 700.10,398.00 696.52,398.00 692.81,398.00 688.99,398.00 685.06,398.00 681.03,398.00 676.90,398.00 672.69,398.00 668.40,398.00 664.05,398.00 659.63,398.00 655.16,398.00 650.65,398.00 646.10,398.00 641.52,398.00 636.92,398.00 632.31,398.00 627.69,398.00 623.08,398.00 618.48,398.00 613.90,398.00 609.35,398.00 604.84,398.00 600.37,398.00 595.95,398.00 591.60,398.00 587.31,398.00 583.10,398.00 578.97,398.00 574.94,398.00 571.01,398.00 567.19,398.00 563.48,398.00 559.90,398.00 556.46,398.00 553.15,398.00 550.00,398.00" fill="none" stroke="#2563eb" stroke-width="4" stroke-linecap="round" stroke-linejoin="round" marker-end="url(#curve-arrow-0)" />
<polyline points="710.00,622.00 713.15,622.00 716.46,622.00 719.90,622.00 723.48,622.00 727.19,622.00 731.01,622.00 734.94,622.00 738.97,622.00 743.10,622.00 747.31,622.00 751.60,622.00 755.95,622.00 760.37,622.00 764.84,622.00 769.35,622.00 773.90,622.00 778.48,622.00 783.08,622.00 787.69,622.00 792.31,622.00 796.92,622.00 801.52,622.00 806.10,622.00 810.65,622.00 815.16,622.00 819.63,622.00 824.05,622.00 828.40,622.00 832.69,622.00 836.90,622.00 841.03,622.00 845.06,622.00 848.99,622.00 852.81,622.00 856.52,622.00 860.10,622.00 863.54,622.00 866.85,622.00 870.00,622.00" fill="none" stroke="#2563eb" stroke-width="4" stroke-linecap="round" stroke-linejoin="round" marker-end="url(#curve-arrow-0)" />
<polyline points="870.00,398.00 866.85,398.00 863.54,398.00 860.10,398.00 856.52,398.00 852.81,398.00 848.99,398.00 845.06,398.00 841.03,398.00 836.90,398.00 832.69,398.00 828.40,398.00 824.05,398.00 819.63,398.00 815.16,398.00 810.65,398.00 806.10,398.00 801.52,398.00 796.92,398.00 792.31,398.00 787.69,398.00 783.08,398.00 778.48,398.00 773.90,398.00 769.35,398.00 764.84,398.00 760.37,398.00 755.95,398.00 751.60,398.00 747.31,398.00 743.10,398.00 738.97,398.00 734.94,398.00 731.01,398.00 727.19,398.00 723.48,398.00 719.90,398.00 716.46,398.00 713.15,398.00 710.00,398.00" fill="none" stroke="#2563eb" stroke-width="4" stroke-linecap="round" stroke-linejoin="round" marker-end="url(#curve-arrow-0)" />
<polyline points="870.00,622.00 876.06,621.94 881.93,621.75 887.62,621.42 893.12,620.97 898.44,620.39 903.57,619.67 908.53,618.81 913.31,617.82 917.91,616.69 922.34,615.42 926.60,614.00 930.68,612.45 934.59,610.74 938.34,608.89 941.92,606.89 945.33,604.74 948.58,602.43 951.67,599.98 954.60,597.36 957.36,594.60 959.98,591.67 962.43,588.58 964.74,585.33 966.89,581.92 968.89,578.34 970.74,574.59 972.45,570.68 974.00,566.60 975.42,562.34 976.69,557.91 977.82,553.31 978.81,548.53 979.67,543.57 980.39,538.44 980.97,533.12 981.42,527.62 981.75,521.93 981.94,516.06 982.00,510.00" fill="none" stroke="#2563eb" stroke-width="4" stroke-linecap="round" stroke-linejoin="round" marker-end="url(#curve-arrow-0)" />
<polyline points="982.00,510.00 981.94,503.94 981.75,498.07 981.42,492.38 980.97,486.88 980.39,481.56 979.67,476.43 978.81,471.47 977.82,466.69 976.69,462.09 975.42,457.66 974.00,453.40 972.45,449.32 970.74,445.41 968.89,441.66 966.89,438.08 964.74,434.67 962.43,431.42 959.98,428.33 957.36,425.40 954.60,422.64 951.67,420.02 948.58,417.57 945.33,415.26 941.92,413.11 938.34,411.11 934.59,409.26 930.68,407.55 926.60,406.00 922.34,404.58 917.91,403.31 913.31,402.18 908.53,401.19 903.57,400.33 898.44,399.61 893.12,399.03 887.62,398.58 881.93,398.25 876.06,398.06 870.00,398.00" fill="none" stroke="#2563eb" stroke-width="4" stroke-linecap="round" stroke-linejoin="round" marker-end="url(#curve-arrow-0)" />
<polyline points="230.00,558.00 227.57,557.97 225.20,557.87 222.90,557.72 220.66,557.50 218.48,557.21 216.37,556.86 214.32,556.45 212.33,555.98 210.40,555.44 208.54,554.84 206.74,554.18 205.01,553.46 203.33,552.67 201.72,551.81 200.18,550.90 198.69,549.92 197.27,548.88 195.92,547.78 194.62,546.61 193.39,545.38 192.22,544.08 191.12,542.73 190.08,541.31 189.10,539.82 188.19,538.28 187.33,536.67 186.54,534.99 185.82,533.26 185.16,531.46 184.56,529.60 184.02,527.67 183.55,525.68 183.14,523.63 182.79,521.52 182.50,519.34 182.28,517.10 182.13,514.80 182.03,512.43 182.00,510.00" fill="none" stroke="#e11d48" stroke-width="4" stroke-linecap="round" stroke-linejoin="round" marker-end="url(#curve-arrow-1)" />
<polyline points="182.00,510.00 182.03,507.57 182.13,505.20 182.28,502.90 182.50,500.66 182.79,498.48 183.14,496.37 183.55,494.32 184.02,492.33 184.56,490.40 185.16,488.54 185.82,486.74 186.54,485.01 187.33,483.33 188.19,481.72 189.10,480.18 190.08,478.69 191.12,477.27 192.22,475.92 193.39,474.62 194.62,473.39 195.92,472.22 197.27,471.12 198.69,470.08 200.18,469.10 201.72,468.19 203.33,467.33 205.01,466.54 206.74,465.82 208.54,465.16 210.40,464.56 212.33,464.02 214.32,463.55 216.37,463.14 218.48,462.79 220.66,462.50 222.90,462.28 225.20,462.13 227.57,462.03 230.00,462.00" fill="none" stroke="#e11d48" stroke-width="4" stroke-linecap="round" stroke-linejoin="round" marker-end="url(#curve-arrow-1)" />
<polyline points="390.00,558.00 386.85,558.00 383.54,558.00 380.10,558.00 376.52,558.00 372.81,558.00 368.99,558.00 365.06,558.00 361.03,558.00 356.90,558.00 352.69,558.00 348.40,558.00 344.05,558.00 339.63,558.00 335.16,558.00 330.65,558.00 326.10,558.00 321.52,558.00 316.92,558.00 312.31,558.00 307.69,558.00 303.08,558.00 298.48,558.00 293.90,558.00 289.35,558.00 284.84,558.00 280.37,558.00 275.95,558.00 271.60,558.00 267.31,558.00 263.10,558.00 258.97,558.00 254.94,558.00 251.01,558.00 247.19,558.00 243.48,558.00 239.90,558.00 236.46,558.00 233.15,558.00 230.00,558.00" fill="none" stroke="#e11d48" stroke-width="4" stroke-linecap="round" stroke-linejoin="round" marker-end="url(#curve-arrow-1)" />
<polyline points="230.00,462.00 233.15,462.00 236.46,462.00 239.90,462.00 243.48,462.00 247.19,462.00 251.01,462.00 254.94,462.00 258.97,462.00 263.10,462.00 267.31,462.00 271.60,462.00 275.95,462.00 280.37,462.00 284.84,462.00 289.35,462.00 293.90,462.00 298.48,462.00 303.08,462.00 307.69,462.00 312.31,462.00 316.92,462.00 321.52,462.00 326.10,462.00 330.65,462.00 335.16,462.00 339.63,462.00 344.05,462.00 348.40,462.00 352.69,462.00 356.90,462.00 361.03,462.00 365.06,462.00 368.99,462.00 372.81,462.00 376.52,462.00 380.10,462.00 383.54,462.00 386.85,462.00 390.00,462.00" fill="none" stroke="#e11d48" stroke-width="4" stroke-linecap="round" stroke-linejoin="round" marker-end="url(#curve-arrow-1)" />
<polyline points="550.00,718.00 547.57,717.97 545.20,717.87 542.90,717.72 540.66,717.50 538.48,717.21 536.37,716.86 534.32,716.45 532.33,715.98 530.40,715.44 528.54,714.84 526.74,714.18 525.01,713.46 523.33,712.67 521.72,711.81 520.18,710.90 518.69,709.92 517.27,708.88 515.92,707.78 514.62,706.61 513.39,705.38 512.22,704.08 511.12,702.73 510.08,701.31 509.10,699.82 508.19,698.28 507.33,696.67 506.54,694.99 505.82,693.26 505.16,691.46 504.56,689.60 504.02,687.67 503.55,685.68 503.14,683.63 502.79,681.52 502.50,679.34 502.28,677.10 502.13,674.80 502.03,672.43 502.00,670.00" fill="none" stroke="#e11d48" stroke-width="4" stroke-linecap="round" stroke-linejoin="round" marker-end="url(#curve-arrow-1)" />
<polyline points="502.00,670.00 501.94,663.94 501.75,658.07 501.42,652.38 500.97,646.88 500.39,641.56 499.67,636.43 498.81,631.47 497.82,626.69 496.69,622.09 495.42,617.66 494.00,613.40 492.45,609.32 490.74,605.41 488.89,601.66 486.89,598.08 484.74,594.67 482.43,591.42 479.98,588.33 477.36,585.40 474.60,582.64 471.67,580.02 468.58,577.57 465.33,575.26 461.92,573.11 458.34,571.11 454.59,569.26 450.68,567.55 446.60,566.00 442.34,564.58 437.91,563.31 433.31,562.18 428.53,561.19 423.57,560.33 418.44,559.61 413.12,559.03 407.62,558.58 401.93,558.25 396.06,558.06 390.00,558.00" fill="none" stroke="#e11d48" stroke-width="4" stroke-linecap="round" stroke-linejoin="round" marker-end="url(#curve-arrow-1)" />
<polyline points="390.00,462.00 393.15,462.00 396.46,462.00 399.90,462.00 403.48,462.00 407.19,462.00 411.01,462.00 414.94,462.00 418.97,462.00 423.10,462.00 427.31,462.00 431.60,462.00 435.95,462.00 440.37,462.00 444.84,462.00 449.35,462.00 453.90,462.00 458.48,462.00 463.08,462.00 467.69,462.00 472.31,462.00 476.92,462.00 481.52,462.00 486.10,462.00 490.65,462.00 495.16,462.00 499.63,462.00 504.05,462.00 508.40,462.00 512.69,462.00 516.90,462.00 521.03,462.00 525.06,462.00 528.99,462.00 532.81,462.00 536.52,462.00 540.10,462.00 543.54,462.00 546.85,462.00 550.00,462.00" fill="none" stroke="#e11d48" stroke-width="4" stroke-linecap="round" stroke-linejoin="round" marker-end="url(#curve-arrow-1)" />
<polyline points="598.00,670.00 597.97,672.43 597.87,674.80 597.72,677.10 597.50,679.34 597.21,681.52 596.86,683.63 596.45,685.68 595.98,687.67 595.44,689.60 594.84,691.46 594.18,693.26 593.46,694.99 592.67,696.67 591.81,698.28 590.90,699.82 589.92,701.31 588.88,702.73 587.78,704.08 586.61,705.38 585.38,706.61 584.08,707.78 582.73,708.88 581.31,709.92 579.82,710.90 578.28,711.81 576.67,712.67 574.99,713.46 573.26,714.18 571.46,714.84 569.60,715.44 567.67,715.98 565.68,716.45 563.63,716.86 561.52,717.21 559.34,717.50 557.10,717.72 554.80,717.87 552.43,717.97 550.00,718.00" fill="none" stroke="#e11d48" stroke-width="4" stroke-linecap="round" stroke-linejoin="round" marker-end="url(#curve-arrow-1)" />
<polyline points="710.00,558.00 703.94,558.06 698.07,558.25 692.38,558.58 686.88,559.03 681.56,559.61 676.43,560.33 671.47,561.19 666.69,562.18 662.09,563.31 657.66,564.58 653.40,566.00 649.32,567.55 645.41,569.26 641.66,571.11 638.08,573.11 634.67,575.26 631.42,577.57 628.33,580.02 625.40,582.64 622.64,585.40 620.02,588.33 617.57,591.42 615.26,594.67 613.11,598.08 611.11,601.66 609.26,605.41 607.55,609.32 606.00,613.40 604.58,617.66 603.31,622.09 602.18,626.69 601.19,631.47 600.33,636.43 599.61,641.56 599.03,646.88 598.58,652.38 598.25,658.07 598.06,663.94 598.00,670.00" fill="none" stroke="#e11d48" stroke-width="4" stroke-linecap="round" stroke-linejoin="round" marker-end="url(#curve-arrow-1)" />
<polyline points="550.00,462.00 553.15,462.00 556.46,462.00 559.90,462.00 563.48,462.00 567.19,462.00 571.01,462.00 574.94,462.00 578.97,462.00 583.10,462.00 587.31,462.00 591.60,462.00 595.95,462.00 600.37,462.00 604.84,462.00 609.35,462.00 613.90,462.00 618.48,462.00 623.08,462.00 627.69,462.00 632.31,462.00 636.92,462.00 641.52,462.00 646.10,462.00 650.65,462.00 655.16,462.00 659.63,462.00 664.05,462.00 668.40,462.00 672.69,462.00 676.90,462.00 681.03,462.00 685.06,462.00 688.99,462.00 692.81,462.00 696.52,462.00 700.10,462.00 703.54,462.00 706.85,462.00 710.00,462.00" fill="none" stroke="#e11d48" stroke-width="4" stroke-linecap="round" stroke-linejoin="round" marker-end="url(#curve-arrow-1)" />
<polyline points="870.00,558.00 866.85,558.00 863.54,558.00 860.10,558.00 856.52,558.00 852.81,558.00 848.99,558.00 845.06,558.00 841.03,558.00 836.90,558.00 832.69,558.00 828.40,558.00 824.05,558.00 819.63,558.00 815.16,558.00 810.65,558.00 806.10,558.00 801.52,558.00 796.92,558.00 792.31,558.00 787.69,558.00 783.08,558.00 778.48,558.00 773.90,558.00 769.35,558.00 764.84,558.00 760.37,558.00 755.95,558.00 751.60,558.00 747.31,558.00 743.10,558.00 738.97,558.00 734.94,558.00 731.01,558.00 727.19,558.00 723.48,558.00 719.90,558.00 716.46,558.00 713.15,558.00 710.00,558.00" fill="none" stroke="#e11d48" stroke-width="4" stroke-linecap="round" stroke-linejoin="round" marker-end="url(#curve-arrow-1)" />
<polyline points="710.00,462.00 713.15,462.00 716.46,462.00 719.90,462.00 723.48,462.00 727.19,462.00 731.01,462.00 734.94,462.00 738.97,462.00 743.10,462.00 747.31,462.00 751.60,462.00 755.95,462.00 760.37,462.00 764.84,462.00 769.35,462.00 773.90,462.00 778.48,462.00 783.08,462.00 787.69,462.00 792.31,462.00 796.92,462.00 801.52,462.00 806.10,462.00 810.65,462.00 815.16,462.00 819.63,462.00 824.05,462.00 828.40,462.00 832.69,462.00 836.90,462.00 841.03,462.00 845.06,462.00 848.99,462.00 852.81,462.00 856.52,462.00 860.10,462.00 863.54,462.00 866.85,462.00 870.00,462.00" fill="none" stroke="#e11d48" stroke-width="4" stroke-linecap="round" stroke-linejoin="round" marker-end="url(#curve-arrow-1)" />
<polyline points="918.00,510.00 917.97,512.43 917.87,514.80 917.72,517.10 917.50,519.34 917.21,521.52 916.86,523.63 916.45,525.68 915.98,527.67 915.44,529.60 914.84,531.46 914.18,533.26 913.46,534.99 912.67,536.67 911.81,538.28 910.90,539.82 909.92,541.31 908.88,542.73 907.78,544.08 906.61,545.38 905.38,546.61 904.08,547.78 902.73,548.88 901.31,549.92 899.82,550.90 898.28,551.81 896.67,552.67 894.99,553.46 893.26,554.18 891.46,554.84 889.60,555.44 887.67,555.98 885.68,556.45 883.63,556.86 881.52,557.21 879.34,557.50 877.10,557.72 874.80,557.87 872.43,557.97 870.00,558.00" fill="none" stroke="#e11d48" stroke-width="4" stroke-linecap="round" stroke-linejoin="round" marker-end="url(#curve-arrow-1)" />
<polyline points="870.00,462.00 872.43,462.03 874.80,462.13 877.10,462.28 879.34,462.50 881.52,462.79 883.63,463.14 885.68,463.55 887.67,464.02 889.60,464.56 891.46,465.16 893.26,465.82 894.99,466.54 896.67,467.33 898.28,468.19 899.82,469.10 901.31,470.08 902.73,471.12 904.08,472.22 905.38,473.39 906.61,474.62 907.78,475.92 908.88,477.27 909.92,478.69 910.90,480.18 911.81,481.72 912.67,483.33 913.46,485.01 914.18,486.74 914.84,488.54 915.44,490.40 915.98,492.33 916.45,494.32 916.86,496.37 917.21,498.48 917.50,500.66 917.72,502.90 917.87,505.20 917.97,507.57 918.00,510.00" fill="none" stroke="#e11d48" stroke-width="4" stroke-linecap="round" stroke-linejoin="round" marker-end="url(#curve-arrow-1)" />
<text x="70" y="36" fill="#222222" font-size="22" font-family="monospace">Bezier Lane Curves From Tile Control Points [curling]</text>
<text x="70" y="856" fill="#222222" font-size="15" font-family="monospace">Gray dashed: control polygon; Green/Red: p0/p3 control points; Colored arrows: lane direction p0 -> p3</text>
<text x="70" y="880" fill="#222222" font-size="14" font-family="monospace">Connected components (curve count): [14, 14]</text>
</svg>