<svg xmlns="http://www.w3.org/2000/svg" width="1100" height="900" viewBox="0 0 1100 900">
<rect x="0" y="0" width="1100" height="900" fill="#ffffff" />
<defs>
<marker id="curve-arrow-0" markerWidth="10" markerHeight="10" refX="8" refY="5" orient="auto" markerUnits="strokeWidth"><path d="M 0 0 L 10 5 L 0 10 z" fill="#2563eb" /></marker>
<marker id="curve-arrow-1" markerWidth="10" markerHeight="10" refX="8" refY="5" orient="auto" markerUnits="strokeWidth"><path d="M 0 0 L 10 5 L 0 10 z" fill="#e11d48" /></marker>
</defs>
<rect x="70.00" y="678.00" width="152.00" height="152.00" fill="#f8f8f8" stroke="#d0d0d0" stroke-width="1.5" />
<text x="77.60" y="696.24" fill="#222222" font-size="13" font-family="monospace">curve (0,0)</text>
<rect x="70.00" y="526.00" width="152.00" height="152.00" fill="#f8f8f8" stroke="#d0d0d0" stroke-width="1.5" />
<text x="77.60" y="544.24" fill="#222222" font-size="13" font-family="monospace">straight (0,1)</text>
<rect x="70.00" y="374.00" width="152.00" height="152.00" fill="#f8f8f8" stroke="#d0d0d0" stroke-width="1.5" />
<text x="77.60" y="392.24" fill="#222222" font-size="13" font-family="monospace">curve (0,2)</text>
<rect x="70.00" y="222.00" width="152.00" height="152.00" fill="#f8f8f8" stroke="#d0d0d0" stroke-width="1.5" />
<text x="77.60" y="240.24" fill="#222222" font-size="13" font-family="monospace">floor (0,3)</text>
<rect x="70.00" y="70.00" width="152.00" height="152.00" fill="#f8f8f8" stroke="#d0d0d0" stroke-width="1.5" />
<text x="77.60" y="88.24" fill="#222222" font-size="13" font-family="monospace">floor (0,4)</text>
<rect x="222.00" y="678.00" width="152.00" height="152.00" fill="#f8f8f8" stroke="#d0d0d0" stroke-width="1.5" />
<text x="229.60" y="696.24" fill="#222222" font-size="13" font-family="monospace">straight (1,0)</text>
<rect x="222.00" y="526.00" width="152.00" height="152.00" fill="#f8f8f8" stroke="#d0d0d0" stroke-width="1.5" />
<text x="229.60" y="544.24" fill="#222222" font-size="13" font-family="monospace">floor (1,1)</text>
<rect x="222.00" y="374.00" width="152.00" height="152.00" fill="#f8f8f8" stroke="#d0d0d0" stroke-width="1.5" />
<text x="229.60" y="392.24" fill="#222222" font-size="13" font-family="monospace">curve (1,2)</text>
<rect x="222.00" y="222.00" width="152.00" height="152.00" fill="#f8f8f8" stroke="#d0d0d0" stroke-width="1.5" />
<text x="229.60" y="240.24" fill="#222222" font-size="13" font-family="monospace">curve (1,3)</text>
<rect x="222.00" y="70.00" width="152.00" height="152.00" fill="#f8f8f8" stroke="#d0d0d0" stroke-width="1.5" />
<text x="229.60" y="88.24" fill="#222222" font-size="13" font-family="monospace">floor (1,4)</text>
<rect x="374.00" y="678.00" width="152.00" height="152.00" fill="#f8f8f8" stroke="#d0d0d0" stroke-width="1.5" />
<text x="381.60" y="696.24" fill="#222222" font-size="13" font-family="monospace">straight (2,0)</text>
<rect x="374.00" y="526.00" width="152.00" height="152.00" fill="#f8f8f8" stroke="#d0d0d0" stroke-width="1.5" />
<text x="381.60" y="544.24" fill="#222222" font-size="13" font-family="monospace">floor (2,1)</text>
<rect x="374.00" y="374.00" width="152.00" height="152.00" fill="#f8f8f8" stroke="#d0d0d0" stroke-width="1.5" />
<text x="381.60" y="392.24" fill="#222222" font-size="13" font-family="monospace">floor (2,2)</text>
<rect x="374.00" y="222.00" width="152.00" height="152.00" fill="#f8f8f8" stroke="#d0d0d0" stroke-width="1.5" />
<text x="381.60" y="240.24" fill="#222222" font-size="13" font-family="monospace">curve (2,3)</text>
<rect x="374.00" y="70.00" width="152.00" height="152.00" fill="#f8f8f8" stroke="#d0d0d0" stroke-width="1.5" />
<text x="381.60" y="88.24" fill="#222222" font-size="13" font-family="monospace">curve (2,4)</text>
<rect x="526.00" y="678.00" width="152.00" height="152.00" fill="#f8f8f8" stroke="#d0d0d0" stroke-width="1.5" />
<text x="533.60" y="696.24" fill="#222222" font-size="13" font-family="monospace">straight (3,0)</text>
<rect x="526.00" y="526.00" width="152.00" height="152.00" fill="#f8f8f8" stroke="#d0d0d0" stroke-width="1.5" />
<text x="533.60" y="544.24" fill="#222222" font-size="13" font-family="monospace">floor (3,1)</text>
<rect x="526.00" y="374.00" width="152.00" height="152.00" fill="#f8f8f8" stroke="#d0d0d0" stroke-width="1.5" />
<text x="533.60" y="392.24" fill="#222222" font-size="13" font-family="monospace">floor (3,2)</text>
<rect x="526.00" y="222.00" width="152.00" height="152.00" fill="#f8f8f8" stroke="#d0d0d0" stroke-width="1.5" />
<text x="533.60" y="240.24" fill="#222222" font-size="13" font-family="monospace">floor (3,3)</text>
<rect x="526.00" y="70.00" width="152.00" height="152.00" fill="#f8f8f8" stroke="#d0d0d0" stroke-width="1.5" />
<text x="533.60" y="88.24" fill="#222222" font-size="13" font-family="monospace">straight (3,4)</text>
<rect x="678.00" y="678.00" width="152.00" height="152.00" fill="#f8f8f8" stroke="#d0d0d0" stroke-width="1.5" />
<text x="685.60" y="696.24" fill="#222222" font-size="13" font-family="monospace">straight (4,0)</text>
<rect x="678.00" y="526.00" width="152.00" height="152.00" fill="#f8f8f8" stroke="#d0d0d0" stroke-width="1.5" />
<text x="685.60" y="544.24" fill="#222222" font-size="13" font-family="monospace">floor (4,1)</text>
<rect x="678.00" y="374.00" width="152.00" height="152.00" fill="#f8f8f8" stroke="#d0d0d0" stroke-width="1.5" />
<text x="685.60" y="392.24" fill="#222222" font-size="13" font-family="monospace">floor (4,2)</text>
<rect x="678.00" y="222.00" width="152.00" height="152.00" fill="#f8f8f8" stroke="#d0d0d0" stroke-width="1.5" />
<text x="685.60" y="240.24" fill="#222222" font-size="13" font-family="monospace">floor (4,3)</text>
<rect x="678.00" y="70.00" width="152.00" height="152.00" fill="#f8f8f8" stroke="#d0d0d0" stroke-width="1.5" />
<text x="685.60" y="88.24" fill="#222222" font-size="13" font-family="monospace">straight (4,4)</text>
<rect x="830.00" y="678.00" width="152.00" height="152.00" fill="#f8f8f8" stroke="#d0d0d0" stroke-width="1.5" />
<text x="837.60" y="696.24" fill="#222222" font-size="13" font-family="monospace">curve (5,0)</text>
<rect x="830.00" y="526.00" width="152.00" height="152.00" fill="#f8f8f8" stroke="#d0d0d0" stroke-width="1.5" />
<text x="837.60" y="544.24" fill="#222222" font-size="13" font-family="monospace">straight (5,1)</text>
<rect x="830.00" y="374.00" width="152.00" height="152.00" fill="#f8f8f8" stroke="#d0d0d0" stroke-width="1.5" />
<text x="837.60" y="392.24" fill="#222222" font-size="13" font-family="monospace">straight (5,2)</text>
<rect x="830.00" y="222.00" width="152.00" height="152.00" fill="#f8f8f8" stroke="#d0d0d0" stroke-width="1.5" />
<text x="837.60" y="240.24" fill="#222222" font-size="13" font-family="monospace">straight (5,3)</text>
<rect x="830.00" y="70.00" width="152.00" height="152.00" fill="#f8f8f8" stroke="#d0d0d0" stroke-width="1.5" />
<text x="837.60" y="88.24" fill="#222222" font-size="13" font-family="monospace">curve (5,4)</text>
<polyline points="146.00,678.00 146.05,682.03 146.18,685.95 146.41,689.74 146.73,693.42 147.14,696.98 147.65,700.42 148.25,703.75 148.94,706.97 149.74,710.07 150.63,713.06 151.61,715.93 152.70,718.69 153.88,721.35 155.17,723.89 156.55,726.33 158.04,728.65 159.63,730.87 161.32,732.98 163.11,734.99 165.01,736.89 167.02,738.68 169.13,740.37 171.35,741.96 173.67,743.45 176.11,744.83 178.65,746.12 181.31,747.30 184.07,748.39 186.94,749.37 189.93,750.26 193.03,751.06 196.25,751.75 199.58,752.35 203.02,752.86 206.58,753.27 210.26,753.59 214.05,753.82 217.97,753.95 222.00,754.00" fill="none" stroke="#facc15" stroke-width="5" stroke-linecap="round" stroke-linejoin="round" />
<polyline points="146.00,526.00 146.00,529.00 146.00,532.14 146.00,535.41 146.00,538.81 146.00,542.33 146.00,545.96 146.00,549.69 146.00,553.53 146.00,557.44 146.00,561.44 146.00,565.52 146.00,569.66 146.00,573.85 146.00,578.10 146.00,582.39 146.00,586.71 146.00,591.06 146.00,595.43 146.00,599.81 146.00,604.19 146.00,608.57 146.00,612.94 146.00,617.29 146.00,621.61 146.00,625.90 146.00,630.15 146.00,634.34 146.00,638.48 146.00,642.56 146.00,646.56 146.00,650.47 146.00,654.31 146.00,658.04 146.00,661.67 146.00,665.19 146.00,668.59 146.00,671.86 146.00,675.00 146.00,678.00" fill="none" stroke="#facc15" stroke-width="5" stroke-linecap="round" stroke-linejoin="round" />
<polyline points="222.00,450.00 217.97,450.05 214.05,450.18 210.26,450.41 206.58,450.73 203.02,451.14 199.58,451.65 196.25,452.25 193.03,452.94 189.93,453.74 186.94,454.63 184.07,455.61 181.31,456.70 178.65,457.88 176.11,459.17 173.67,460.55 171.35,462.04 169.13,463.63 167.02,465.32 165.01,467.11 163.11,469.01 161.32,471.02 159.63,473.13 158.04,475.35 156.55,477.67 155.17,480.11 153.88,482.65 152.70,485.31 151.61,488.07 150.63,490.94 149.74,493.93 148.94,497.03 148.25,500.25 147.65,503.58 147.14,507.02 146.73,510.58 146.41,514.26 146.18,518.05 146.05,521.97 146.00,526.00" fill="none" stroke="#facc15" stroke-width="5" stroke-linecap="round" stroke-linejoin="round" />
<polyline points="374.00,754.00 371.00,754.00 367.86,754.00 364.59,754.00 361.19,754.00 357.67,754.00 354.04,754.00 350.31,754.00 346.47,754.00 342.56,754.00 338.56,754.00 334.48,754.00 330.34,754.00 326.15,754.00 321.90,754.00 317.61,754.00 313.29,754.00 308.94,754.00 304.57,754.00 300.19,754.00 295.81,754.00 291.43,754.00 287.06,754.00 282.71,754.00 278.39,754.00 274.10,754.00 269.85,754.00 265.66,754.00 261.52,754.00 257.44,754.00 253.44,754.00 249.53,754.00 245.69,754.00 241.96,754.00 238.33,754.00 234.81,754.00 231.41,754.00 228.14,754.00 225.00,754.00 222.00,754.00" fill="none" stroke="#facc15" stroke-width="5" stroke-linecap="round" stroke-linejoin="round" />
<polyline points="222.00,450.00 226.03,449.95 229.95,449.82 233.74,449.59 237.42,449.27 240.98,448.86 244.42,448.35 247.75,447.75 250.97,447.06 254.07,446.26 257.06,445.37 259.93,444.39 262.69,443.30 265.35,442.12 267.89,440.83 270.33,439.45 272.65,437.96 274.87,436.37 276.98,434.68 278.99,432.89 280.89,430.99 282.68,428.98 284.37,426.87 285.96,424.65 287.45,422.33 288.83,419.89 290.12,417.35 291.30,414.69 292.39,411.93 293.37,409.06 294.26,406.07 295.06,402.97 295.75,399.75 296.35,396.42 296.86,392.98 297.27,389.42 297.59,385.74 297.82,381.95 297.95,378.03 298.00,374.00" fill="none" stroke="#facc15" stroke-width="5" stroke-linecap="round" stroke-linejoin="round" />
<polyline points="374.00,298.00 369.97,298.05 366.05,298.18 362.26,298.41 358.58,298.73 355.02,299.14 351.58,299.65 348.25,300.25 345.03,300.94 341.93,301.74 338.94,302.63 336.07,303.61 333.31,304.70 330.65,305.88 328.11,307.17 325.67,308.55 323.35,310.04 321.13,311.63 319.02,313.32 317.01,315.11 315.11,317.01 313.32,319.02 311.63,321.13 310.04,323.35 308.55,325.67 307.17,328.11 305.88,330.65 304.70,333.31 303.61,336.07 302.63,338.94 301.74,341.93 300.94,345.03 300.25,348.25 299.65,351.58 299.14,355.02 298.73,358.58 298.41,362.26 298.18,366.05 298.05,369.97 298.00,374.00" fill="none" stroke="#facc15" stroke-width="5" stroke-linecap="round" stroke-linejoin="round" />
<polyline points="526.00,754.00 523.00,754.00 519.86,754.00 516.59,754.00 513.19,754.00 509.67,754.00 506.04,754.00 502.31,754.00 498.47,754.00 494.56,754.00 490.56,754.00 486.48,754.00 482.34,754.00 478.15,754.00 473.90,754.00 469.61,754.00 465.29,754.00 460.94,754.00 456.57,754.00 452.19,754.00 447.81,754.00 443.43,754.00 439.06,754.00 434.71,754.00 430.39,754.00 426.10,754.00 421.85,754.00 417.66,754.00 413.52,754.00 409.44,754.00 405.44,754.00 401.53,754.00 397.69,754.00 393.96,754.00 390.33,754.00 386.81,754.00 383.41,754.00 380.14,754.00 377.00,754.00 374.00,754.00" fill="none" stroke="#facc15" stroke-width="5" stroke-linecap="round" stroke-linejoin="round" />
<polyline points="374.00,298.00 378.03,297.95 381.95,297.82 385.74,297.59 389.42,297.27 392.98,296.86 396.42,296.35 399.75,295.75 402.97,295.06 406.07,294.26 409.06,293.37 411.93,292.39 414.69,291.30 417.35,290.12 419.89,288.83 422.33,287.45 424.65,285.96 426.87,284.37 428.98,282.68 430.99,280.89 432.89,278.99 434.68,276.98 436.37,274.87 437.96,272.65 439.45,270.33 440.83,267.89 442.12,265.35 443.30,262.69 444.39,259.93 445.37,257.06 446.26,254.07 447.06,250.97 447.75,247.75 448.35,244.42 448.86,240.98 449.27,237.42 449.59,233.74 449.82,229.95 449.95,226.03 450.00,222.00" fill="none" stroke="#facc15" stroke-width="5" stroke-linecap="round" stroke-linejoin="round" />
<polyline points="526.00,146.00 521.97,146.05 518.05,146.18 514.26,146.41 510.58,146.73 507.02,147.14 503.58,147.65 500.25,148.25 497.03,148.94 493.93,149.74 490.94,150.63 488.07,151.61 485.31,152.70 482.65,153.88 480.11,155.17 477.67,156.55 475.35,158.04 473.13,159.63 471.02,161.32 469.01,163.11 467.11,165.01 465.32,167.02 463.63,169.13 462.04,171.35 460.55,173.67 459.17,176.11 457.88,178.65 456.70,181.31 455.61,184.07 454.63,186.94 453.74,189.93 452.94,193.03 452.25,196.25 451.65,199.58 451.14,203.02 450.73,206.58 450.41,210.26 450.18,214.05 450.05,217.97 450.00,222.00" fill="none" stroke="#facc15" stroke-width="5" stroke-linecap="round" stroke-linejoin="round" />
<polyline points="678.00,754.00 675.00,754.00 671.86,754.00 668.59,754.00 665.19,754.00 661.67,754.00 658.04,754.00 654.31,754.00 650.47,754.00 646.56,754.00 642.56,754.00 638.48,754.00 634.34,754.00 630.15,754.00 625.90,754.00 621.61,754.00 617.29,754.00 612.94,754.00 608.57,754.00 604.19,754.00 599.81,754.00 595.43,754.00 591.06,754.00 586.71,754.00 582.39,754.00 578.10,754.00 573.85,754.00 569.66,754.00 565.52,754.00 561.44,754.00 557.44,754.00 553.53,754.00 549.69,754.00 545.96,754.00 542.33,754.00 538.81,754.00 535.41,754.00 532.14,754.00 529.00,754.00 526.00,754.00" fill="none" stroke="#facc15" stroke-width="5" stroke-linecap="round" stroke-linejoin="round" />
<polyline points="678.00,146.00 675.00,146.00 671.86,146.00 668.59,146.00 665.19,146.00 661.67,146.00 658.04,146.00 654.31,146.00 650.47,146.00 646.56,146.00 642.56,146.00 638.48,146.00 634.34,146.00 630.15,146.00 625.90,146.00 621.61,146.00 617.29,146.00 612.94,146.00 608.57,146.00 604.19,146.00 599.81,146.00 595.43,146.00 591.06,146.00 586.71,146.00 582.39,146.00 578.10,146.00 573.85,146.00 569.66,146.00 565.52,146.00 561.44,146.00 557.44,146.00 553.53,146.00 549.69,146.00 545.96,146.00 542.33,146.00 538.81,146.00 535.41,146.00 532.14,146.00 529.00,146.00 526.00,146.00" fill="none" stroke="#facc15" stroke-width="5" stroke-linecap="round" stroke-linejoin="round" />
<polyline points="830.00,754.00 827.00,754.00 823.86,754.00 820.59,754.00 817.19,754.00 813.67,754.00 810.04,754.00 806.31,754.00 802.47,754.00 798.56,754.00 794.56,754.00 790.48,754.00 786.34,754.00 782.15,754.00 777.90,754.00 773.61,754.00 769.29,754.00 764.94,754.00 760.57,754.00 756.19,754.00 751.81,754.00 747.43,754.00 743.06,754.00 738.71,754.00 734.39,754.00 730.10,754.00 725.85,754.00 721.66,754.00 717.52,754.00 713.44,754.00 709.44,754.00 705.53,754.00 701.69,754.00 697.96,754.00 694.33,754.00 690.81,754.00 687.41,754.00 684.14,754.00 681.00,754.00 678.00,754.00" fill="none" stroke="#facc15" stroke-width="5" stroke-linecap="round" stroke-linejoin="round" />
<polyline points="830.00,146.00 827.00,146.00 823.86,146.00 820.59,146.00 817.19,146.00 813.67,146.00 810.04,146.00 806.31,146.00 802.47,146.00 798.56,146.00 794.56,146.00 790.48,146.00 786.34,146.00 782.15,146.00 777.90,146.00 773.61,146.00 769.29,146.00 764.94,146.00 760.57,146.00 756.19,146.00 751.81,146.00 747.43,146.00 743.06,146.00 738.71,146.00 734.39,146.00 730.10,146.00 725.85,146.00 721.66,146.00 717.52,146.00 713.44,146.00 709.44,146.00 705.53,146.00 701.69,146.00 697.96,146.00 694.33,146.00 690.81,146.00 687.41,146.00 684.14,146.00 681.00,146.00 678.00,146.00" fill="none" stroke="#facc15" stroke-width="5" stroke-linecap="round" stroke-linejoin="round" />
<polyline points="830.00,754.00 834.03,753.95 837.95,753.82 841.74,753.59 845.42,753.27 848.98,752.86 852.42,752.35 855.75,751.75 858.97,751.06 862.07,750.26 865.06,749.37 867.93,748.39 870.69,747.30 873.35,746.12 875.89,744.83 878.33,743.45 880.65,741.96 882.87,740.37 884.98,738.68 886.99,736.89 888.89,734.99 890.68,732.98 892.37,730.87 893.96,728.65 895.45,726.33 896.83,723.89 898.12,721.35 899.30,718.69 900.39,715.93 901.37,713.06 902.26,710.07 903.06,706.97 903.75,703.75 904.35,700.42 904.86,696.98 905.27,693.42 905.59,689.74 905.82,685.95 905.95,682.03 906.00,678.00" fill="none" stroke="#facc15" stroke-width="5" stroke-linecap="round" stroke-linejoin="round" />
<polyline points="906.00,526.00 906.00,529.00 906.00,532.14 906.00,535.41 906.00,538.81 906.00,542.33 906.00,545.96 906.00,549.69 906.00,553.53 906.00,557.44 906.00,561.44 906.00,565.52 906.00,569.66 906.00,573.85 906.00,578.10 906.00,582.39 906.00,586.71 906.00,591.06 906.00,595.43 906.00,599.81 906.00,604.19 906.00,608.57 906.00,612.94 906.00,617.29 906.00,621.61 906.00,625.90 906.00,630.15 906.00,634.34 906.00,638.48 906.00,642.56 906.00,646.56 906.00,650.47 906.00,654.31 906.00,658.04 906.00,661.67 906.00,665.19 906.00,668.59 906.00,671.86 906.00,675.00 906.00,678.00" fill="none" stroke="#facc15" stroke-width="5" stroke-linecap="round" stroke-linejoin="round" />
<polyline points="906.00,374.00 906.00,377.00 906.00,380.14 906.00,383.41 906.00,386.81 906.00,390.33 906.00,393.96 906.00,397.69 906.00,401.53 906.00,405.44 906.00,409.44 906.00,413.52 906.00,417.66 906.00,421.85 906.00,426.10 906.00,430.39 906.00,434.71 906.00,439.06 906.00,443.43 906.00,447.81 906.00,452.19 906.00,456.57 906.00,460.94 906.00,465.29 906.00,469.61 906.00,473.90 906.00,478.15 906.00,482.34 906.00,486.48 906.00,490.56 906.00,494.56 906.00,498.47 906.00,502.31 906.00,506.04 906.00,509.67 906.00,513.19 906.00,516.59 906.00,519.86 906.00,523.00 906.00,526.00" fill="none" stroke="#facc15" stroke-width="5" stroke-linecap="round" stroke-linejoin="round" />
<polyline points="906.00,222.00 906.00,225.00 906.00,228.14 906.00,231.41 906.00,234.81 906.00,238.33 906.00,241.96 906.00,245.69 906.00,249.53 906.00,253.44 906.00,257.44 906.00,261.52 906.00,265.66 906.00,269.85 906.00,274.10 906.00,278.39 906.00,282.71 906.00,287.06 906.00,291.43 906.00,295.81 906.00,300.19 906.00,304.57 906.00,308.94 906.00,313.29 906.00,317.61 906.00,321.90 906.00,326.15 906.00,330.34 906.00,334.48 906.00,338.56 906.00,342.56 906.00,346.47 906.00,350.31 906.00,354.04 906.00,357.67 906.00,361.19 906.00,364.59 906.00,367.86 906.00,371.00 906.00,374.00" fill="none" stroke="#facc15" stroke-width="5" stroke-linecap="round" stroke-linejoin="round" />
<polyline points="906.00,222.00 905.95,217.97 905.82,214.05 905.59,210.26 905.27,206.58 904.86,203.02 904.35,199.58 903.75,196.25 903.06,193.03 902.26,189.93 901.37,186.94 900.39,184.07 899.30,181.31 898.12,178.65 896.83,176.11 895.45,173.67 893.96,171.35 892.37,169.13 890.68,167.02 888.89,165.01 886.99,163.11 884.98,161.32 882.87,159.63 880.65,158.04 878.33,156.55 875.89,155.17 873.35,153.88 870.69,152.70 867.93,151.61 865.06,150.63 862.07,149.74 858.97,148.94 855.75,148.25 852.42,147.65 848.98,147.14 845.42,146.73 841.74,146.41 837.95,146.18 834.03,146.05 830.00,146.00" fill="none" stroke="#facc15" stroke-width="5" stroke-linecap="round" stroke-linejoin="round" />
<polyline points="115.60,678.00 115.60,754.00 146.00,784.40 222.00,784.40" fill="none" stroke="#9ca3af" stroke-width="1.5" stroke-dasharray="5 4" />
<circle cx="115.60" cy="678.00" r="4.00" fill="#16a34a" />
<circle cx="115.60" cy="754.00" r="3.00" fill="#111827" />
<circle cx="146.00" cy="784.40" r="3.00" fill="#111827" />
<circle cx="222.00" cy="784.40" r="4.00" fill="#dc2626" />
<polyline points="222.00,723.60 191.60,723.60 176.40,708.40 176.40,678.00" fill="none" stroke="#9ca3af" stroke-width="1.5" stroke-dasharray="5 4" />
<circle cx="222.00" cy="723.60" r="4.00" fill="#16a34a" />
<circle cx="191.60" cy="723.60" r="3.00" fill="#111827" />
<circle cx="176.40" cy="708.40" r="3.00" fill="#111827" />
<circle cx="176.40" cy="678.00" r="4.00" fill="#dc2626" />
<polyline points="115.60,526.00 115.60,564.00 115.60,640.00 115.60,678.00" fill="none" stroke="#9ca3af" stroke-width="1.5" stroke-dasharray="5 4" />
<circle cx="115.60" cy="526.00" r="4.00" fill="#16a34a" />
<circle cx="115.60" cy="564.00" r="3.00" fill="#111827" />
<circle cx="115.60" cy="640.00" r="3.00" fill="#111827" />
<circle cx="115.60" cy="678.00" r="4.00" fill="#dc2626" />
<polyline points="176.40,678.00 176.40,640.00 176.40,564.00 176.40,526.00" fill="none" stroke="#9ca3af" stroke-width="1.5" stroke-dasharray="5 4" />
<circle cx="176.40" cy="678.00" r="4.00" fill="#16a34a" />
<circle cx="176.40" cy="640.00" r="3.00" fill="#111827" />
<circle cx="176.40" cy="564.00" r="3.00" fill="#111827" />
<circle cx="176.40" cy="526.00" r="4.00" fill="#dc2626" />
<polyline points="222.00,419.60 146.00,419.60 115.60,450.00 115.60,526.00" fill="none" stroke="#9ca3af" stroke-width="1.5" stroke-dasharray="5 4" />
<circle cx="222.00" cy="419.60" r="4.00" fill="#16a34a" />
<circle cx="146.00" cy="419.60" r="3.00" fill="#111827" />
<circle cx="115.60" cy="450.00" r="3.00" fill="#111827" />
<circle cx="115.60" cy="526.00" r="4.00" fill="#dc2626" />
<polyline points="176.40,526.00 176.40,495.60 191.60,480.40 222.00,480.40" fill="none" stroke="#9ca3af" stroke-width="1.5" stroke-dasharray="5 4" />
<circle cx="176.40" cy="526.00" r="4.00" fill="#16a34a" />
<circle cx="176.40" cy="495.60" r="3.00" fill="#111827" />
<circle cx="191.60" cy="480.40" r="3.00" fill="#111827" />
<circle cx="222.00" cy="480.40" r="4.00" fill="#dc2626" />
<polyline points="374.00,723.60 336.00,723.60 260.00,723.60 222.00,723.60" fill="none" stroke="#9ca3af" stroke-width="1.5" stroke-dasharray="5 4" />
<circle cx="374.00" cy="723.60" r="4.00" fill="#16a34a" />
<circle cx="336.00" cy="723.60" r="3.00" fill="#111827" />
<circle cx="260.00" cy="723.60" r="3.00" fill="#111827" />
<circle cx="222.00" cy="723.60" r="4.00" fill="#dc2626" />
<polyline points="222.00,784.40 260.00,784.40 336.00,784.40 374.00,784.40" fill="none" stroke="#9ca3af" stroke-width="1.5" stroke-dasharray="5 4" />
<circle cx="222.00" cy="784.40" r="4.00" fill="#16a34a" />
<circle cx="260.00" cy="784.40" r="3.00" fill="#111827" />
<circle cx="336.00" cy="784.40" r="3.00" fill="#111827" />
<circle cx="374.00" cy="784.40" r="4.00" fill="#dc2626" />
<polyline points="222.00,480.40 298.00,480.40 328.40,450.00 328.40,374.00" fill="none" stroke="#9ca3af" stroke-width="1.5" stroke-dasharray="5 4" />
<circle cx="222.00" cy="480.40" r="4.00" fill="#16a34a" />
<circle cx="298.00" cy="480.40" r="3.00" fill="#111827" />
<circle cx="328.40" cy="450.00" r="3.00" fill="#111827" />
<circle cx="328.40" cy="374.00" r="4.00" fill="#dc2626" />
<polyline points="267.60,374.00 267.60,404.40 252.40,419.60 222.00,419.60" fill="none" stroke="#9ca3af" stroke-width="1.5" stroke-dasharray="5 4" />
<circle cx="267.60" cy="374.00" r="4.00" fill="#16a34a" />
<circle cx="267.60" cy="404.40" r="3.00" fill="#111827" />
<circle cx="252.40" cy="419.60" r="3.00" fill="#111827" />
<circle cx="222.00" cy="419.60" r="4.00" fill="#dc2626" />
<polyline points="374.00,267.60 298.00,267.60 267.60,298.00 267.60,374.00" fill="none" stroke="#9ca3af" stroke-width="1.5" stroke-dasharray="5 4" />
<circle cx="374.00" cy="267.60" r="4.00" fill="#16a34a" />
<circle cx="298.00" cy="267.60" r="3.00" fill="#111827" />
<circle cx="267.60" cy="298.00" r="3.00" fill="#111827" />
<circle cx="267.60" cy="374.00" r="4.00" fill="#dc2626" />
<polyline points="328.40,374.00 328.40,343.60 343.60,328.40 374.00,328.40" fill="none" stroke="#9ca3af" stroke-width="1.5" stroke-dasharray="5 4" />
<circle cx="328.40" cy="374.00" r="4.00" fill="#16a34a" />
<circle cx="328.40" cy="343.60" r="3.00" fill="#111827" />
<circle cx="343.60" cy="328.40" r="3.00" fill="#111827" />
<circle cx="374.00" cy="328.40" r="4.00" fill="#dc2626" />
<polyline points="526.00,723.60 488.00,723.60 412.00,723.60 374.00,723.60" fill="none" stroke="#9ca3af" stroke-width="1.5" stroke-dasharray="5 4" />
<circle cx="526.00" cy="723.60" r="4.00" fill="#16a34a" />
<circle cx="488.00" cy="723.60" r="3.00" fill="#111827" />
<circle cx="412.00" cy="723.60" r="3.00" fill="#111827" />
<circle cx="374.00" cy="723.60" r="4.00" fill="#dc2626" />
<polyline points="374.00,784.40 412.00,784.40 488.00,784.40 526.00,784.40" fill="none" stroke="#9ca3af" stroke-width="1.5" stroke-dasharray="5 4" />
<circle cx="374.00" cy="784.40" r="4.00" fill="#16a34a" />
<circle cx="412.00" cy="784.40" r="3.00" fill="#111827" />
<circle cx="488.00" cy="784.40" r="3.00" fill="#111827" />
<circle cx="526.00" cy="784.40" r="4.00" fill="#dc2626" />
<polyline points="374.00,328.40 450.00,328.40 480.40,298.00 480.40,222.00" fill="none" stroke="#9ca3af" stroke-width="1.5" stroke-dasharray="5 4" />
<circle cx="374.00" cy="328.40" r="4.00" fill="#16a34a" />
<circle cx="450.00" cy="328.40" r="3.00" fill="#111827" />
<circle cx="480.40" cy="298.00" r="3.00" fill="#111827" />
<circle cx="480.40" cy="222.00" r="4.00" fill="#dc2626" />
<polyline points="419.60,222.00 419.60,252.40 404.40,267.60 374.00,267.60" fill="none" stroke="#9ca3af" stroke-width="1.5" stroke-dasharray="5 4" />
<circle cx="419.60" cy="222.00" r="4.00" fill="#16a34a" />
<circle cx="419.60" cy="252.40" r="3.00" fill="#111827" />
<circle cx="404.40" cy="267.60" r="3.00" fill="#111827" />
<circle cx="374.00" cy="267.60" r="4.00" fill="#dc2626" />
<polyline points="526.00,115.60 450.00,115.60 419.60,146.00 419.60,222.00" fill="none" stroke="#9ca3af" stroke-width="1.5" stroke-dasharray="5 4" />
<circle cx="526.00" cy="115.60" r="4.00" fill="#16a34a" />
<circle cx="450.00" cy="115.60" r="3.00" fill="#111827" />
<circle cx="419.60" cy="146.00" r="3.00" fill="#111827" />
<circle cx="419.60" cy="222.00" r="4.00" fill="#dc2626" />
<polyline points="480.40,222.00 480.40,191.60 495.60,176.40 526.00,176.40" fill="none" stroke="#9ca3af" stroke-width="1.5" stroke-dasharray="5 4" />
<circle cx="480.40" cy="222.00" r="4.00" fill="#16a34a" />
<circle cx="480.40" cy="191.60" r="3.00" fill="#111827" />
<circle cx="495.60" cy="176.40" r="3.00" fill="#111827" />
<circle cx="526.00" cy="176.40" r="4.00" fill="#dc2626" />
<polyline points="678.00,723.60 640.00,723.60 564.00,723.60 526.00,723.60" fill="none" stroke="#9ca3af" stroke-width="1.5" stroke-dasharray="5 4" />
<circle cx="678.00" cy="723.60" r="4.00" fill="#16a34a" />
<circle cx="640.00" cy="723.60" r="3.00" fill="#111827" />
<circle cx="564.00" cy="723.60" r="3.00" fill="#111827" />
<circle cx="526.00" cy="723.60" r="4.00" fill="#dc2626" />
<polyline points="526.00,784.40 564.00,784.40 640.00,784.40 678.00,784.40" fill="none" stroke="#9ca3af" stroke-width="1.5" stroke-dasharray="5 4" />
<circle cx="526.00" cy="784.40" r="4.00" fill="#16a34a" />
<circle cx="564.00" cy="784.40" r="3.00" fill="#111827" />
<circle cx="640.00" cy="784.40" r="3.00" fill="#111827" />
<circle cx="678.00" cy="784.40" r="4.00" fill="#dc2626" />
<polyline points="678.00,115.60 640.00,115.60 564.00,115.60 526.00,115.60" fill="none" stroke="#9ca3af" stroke-width="1.5" stroke-dasharray="5 4" />
<circle cx="678.00" cy="115.60" r="4.00" fill="#16a34a" />
<circle cx="640.00" cy="115.60" r="3.00" fill="#111827" />
<circle cx="564.00" cy="115.60" r="3.00" fill="#111827" />
<circle cx="526.00" cy="115.60" r="4.00" fill="#dc2626" />
<polyline points="526.00,176.40 564.00,176.40 640.00,176.40 678.00,176.40" fill="none" stroke="#9ca3af" stroke-width="1.5" stroke-dasharray="5 4" />
<circle cx="526.00" cy="176.40" r="4.00" fill="#16a34a" />
<circle cx="564.00" cy="176.40" r="3.00" fill="#111827" />
<circle cx="640.00" cy="176.40" r="3.00" fill="#111827" />
<circle cx="678.00" cy="176.40" r="4.00" fill="#dc2626" />
<polyline points="830.00,723.60 792.00,723.60 716.00,723.60 678.00,723.60" fill="none" stroke="#9ca3af" stroke-width="1.5" stroke-dasharray="5 4" />
<circle cx="830.00" cy="723.60" r="4.00" fill="#16a34a" />
<circle cx="792.00" cy="723.60" r="3.00" fill="#111827" />
<circle cx="716.00" cy="723.60" r="3.00" fill="#111827" />
<circle cx="678.00" cy="723.60" r="4.00" fill="#dc2626" />
<polyline points="678.00,784.40 716.00,784.40 792.00,784.40 830.00,784.40" fill="none" stroke="#9ca3af" stroke-width="1.5" stroke-dasharray="5 4" />
<circle cx="678.00" cy="784.40" r="4.00" fill="#16a34a" />
<circle cx="716.00" cy="784.40" r="3.00" fill="#111827" />
<circle cx="792.00" cy="784.40" r="3.00" fill="#111827" />
<circle cx="830.00" cy="784.40" r="4.00" fill="#dc2626" />
<polyline points="830.00,115.60 792.00,115.60 716.00,115.60 678.00,115.60" fill="none" stroke="#9ca3af" stroke-width="1.5" stroke-dasharray="5 4" />
<circle cx="830.00" cy="115.60" r="4.00" fill="#16a34a" />
<circle cx="792.00" cy="115.60" r="3.00" fill="#111827" />
<circle cx="716.00" cy="115.60" r="3.00" fill="#111827" />
<circle cx="678.00" cy="115.60" r="4.00" fill="#dc2626" />
<polyline points="678.00,176.40 716.00,176.40 792.00,176.40 830.00,176.40" fill="none" stroke="#9ca3af" stroke-width="1.5" stroke-dasharray="5 4" />
<circle cx="678.00" cy="176.40" r="4.00" fill="#16a34a" />
<circle cx="716.00" cy="176.40" r="3.00" fill="#111827" />
<circle cx="792.00" cy="176.40" r="3.00" fill="#111827" />
<circle cx="830.00" cy="176.40" r="4.00" fill="#dc2626" />
<polyline points="830.00,784.40 906.00,784.40 936.40,754.00 936.40,678.00" fill="none" stroke="#9ca3af" stroke-width="1.5" stroke-dasharray="5 4" />
<circle cx="830.00" cy="784.40" r="4.00" fill="#16a34a" />
<circle cx="906.00" cy="784.40" r="3.00" fill="#111827" />
<circle cx="936.40" cy="754.00" r="3.00" fill="#111827" />
<circle cx="936.40" cy="678.00" r="4.00" fill="#dc2626" />
<polyline points="875.60,678.00 875.60,708.40 860.40,723.60 830.00,723.60" fill="none" stroke="#9ca3af" stroke-width="1.5" stroke-dasharray="5 4" />
<circle cx="875.60" cy="678.00" r="4.00" fill="#16a34a" />
<circle cx="875.60" cy="708.40" r="3.00" fill="#111827" />
<circle cx="860.40" cy="723.60" r="3.00" fill="#111827" />
<circle cx="830.00" cy="723.60" r="4.00" fill="#dc2626" />
<polyline points="875.60,526.00 875.60,564.00 875.60,640.00 875.60,678.00" fill="none" stroke="#9ca3af" stroke-width="1.5" stroke-dasharray="5 4" />
<circle cx="875.60" cy="526.00" r="4.00" fill="#16a34a" />
<circle cx="875.60" cy="564.00" r="3.00" fill="#111827" />
<circle cx="875.60" cy="640.00" r="3.00" fill="#111827" />
<circle cx="875.60" cy="678.00" r="4.00" fill="#dc2626" />
<polyline points="936.40,678.00 936.40,640.00 936.40,564.00 936.40,526.00" fill="none" stroke="#9ca3af" stroke-width="1.5" stroke-dasharray="5 4" />
<circle cx="936.40" cy="678.00" r="4.00" fill="#16a34a" />
<circle cx="936.40" cy="640.00" r="3.00" fill="#111827" />
<circle cx="936.40" cy="564.00" r="3.00" fill="#111827" />
<circle cx="936.40" cy="526.00" r="4.00" fill="#dc2626" />
<polyline points="875.60,374.00 875.60,412.00 875.60,488.00 875.60,526.00" fill="none" stroke="#9ca3af" stroke-width="1.5" stroke-dasharray="5 4" />
<circle cx="875.60" cy="374.00" r="4.00" fill="#16a34a" />
<circle cx="875.60" cy="412.00" r="3.00" fill="#111827" />
<circle cx="875.60" cy="488.00" r="3.00" fill="#111827" />
<circle cx="875.60" cy="526.00" r="4.00" fill="#dc2626" />
<polyline points="936.40,526.00 936.40,488.00 936.40,412.00 936.40,374.00" fill="none" stroke="#9ca3af" stroke-width="1.5" stroke-dasharray="5 4" />
<circle cx="936.40" cy="526.00" r="4.00" fill="#16a34a" />
<circle cx="936.40" cy="488.00" r="3.00" fill="#111827" />
<circle cx="936.40" cy="412.00" r="3.00" fill="#111827" />
<circle cx="936.40" cy="374.00" r="4.00" fill="#dc2626" />
<polyline points="875.60,222.00 875.60,260.00 875.60,336.00 875.60,374.00" fill="none" stroke="#9ca3af" stroke-width="1.5" stroke-dasharray="5 4" />
<circle cx="875.60" cy="222.00" r="4.00" fill="#16a34a" />
<circle cx="875.60" cy="260.00" r="3.00" fill="#111827" />
<circle cx="875.60" cy="336.00" r="3.00" fill="#111827" />
<circle cx="875.60" cy="374.00" r="4.00" fill="#dc2626" />
<polyline points="936.40,374.00 936.40,336.00 936.40,260.00 936.40,222.00" fill="none" stroke="#9ca3af" stroke-width="1.5" stroke-dasharray="5 4" />
<circle cx="936.40" cy="374.00" r="4.00" fill="#16a34a" />
<circle cx="936.40" cy="336.00" r="3.00" fill="#111827" />
<circle cx="936.40" cy="260.00" r="3.00" fill="#111827" />
<circle cx="936.40" cy="222.00" r="4.00" fill="#dc2626" />
<polyline points="936.40,222.00 936.40,146.00 906.00,115.60 830.00,115.60" fill="none" stroke="#9ca3af" stroke-width="1.5" stroke-dasharray="5 4" />
<circle cx="936.40" cy="222.00" r="4.00" fill="#16a34a" />
<circle cx="936.40" cy="146.00" r="3.00" fill="#111827" />
<circle cx="906.00" cy="115.60" r="3.00" fill="#111827" />
<circle cx="830.00" cy="115.60" r="4.00" fill="#dc2626" />
<polyline points="830.00,176.40 860.40,176.40 875.60,191.60 875.60,222.00" fill="none" stroke="#9ca3af" stroke-width="1.5" stroke-dasharray="5 4" />
<circle cx="830.00" cy="176.40" r="4.00" fill="#16a34a" />
<circle cx="860.40" cy="176.40" r="3.00" fill="#111827" />
<circle cx="875.60" cy="191.60" r="3.00" fill="#111827" />
<circle cx="875.60" cy="222.00" r="4.00" fill="#dc2626" />
<polyline points="115.60,678.00 115.66,683.76 115.84,689.33 116.15,694.74 116.58,699.96 117.13,705.01 117.81,709.89 118.63,714.60 119.57,719.14 120.64,723.52 121.85,727.72 123.20,731.77 124.68,735.65 126.30,739.36 128.06,742.92 129.96,746.32 132.00,749.56 134.19,752.65 136.52,755.58 139.00,758.37 141.63,761.00 144.42,763.48 147.35,765.81 150.44,768.00 153.68,770.04 157.08,771.94 160.64,773.70 164.35,775.32 168.23,776.80 172.28,778.15 176.48,779.36 180.86,780.43 185.40,781.37 190.11,782.19 194.99,782.87 200.04,783.42 205.26,783.85 210.67,784.16 216.24,784.34 222.00,784.40" fill="none" stroke="#2563eb" stroke-width="4" stroke-linecap="round" stroke-linejoin="round" marker-end="url(#curve-arrow-0)" />
<polyline points="115.60,526.00 115.60,529.00 115.60,532.14 115.60,535.41 115.60,538.81 115.60,542.33 115.60,545.96 115.60,549.69 115.60,553.53 115.60,557.44 115.60,561.44 115.60,565.52 115.60,569.66 115.60,573.85 115.60,578.10 115.60,582.39 115.60,586.71 115.60,591.06 115.60,595.43 115.60,599.81 115.60,604.19 115.60,608.57 115.60,612.94 115.60,617.29 115.60,621.61 115.60,625.90 115.60,630.15 115.60,634.34 115.60,638.48 115.60,642.56 115.60,646.56 115.60,650.47 115.60,654.31 115.60,658.04 115.60,661.67 115.60,665.19 115.60,668.59 115.60,671.86 115.60,675.00 115.60,678.00" fill="none" stroke="#2563eb" stroke-width="4" stroke-linecap="round" stroke-linejoin="round" marker-end="url(#curve-arrow-0)" />
<polyline points="222.00,419.60 216.24,419.66 210.67,419.84 205.26,420.15 200.04,420.58 194.99,421.13 190.11,421.81 185.40,422.63 180.86,423.57 176.48,424.64 172.28,425.85 168.23,427.20 164.35,428.68 160.64,430.30 157.08,432.06 153.68,433.96 150.44,436.00 147.35,438.19 144.42,440.52 141.63,443.00 139.00,445.63 136.52,448.42 134.19,451.35 132.00,454.44 129.96,457.68 128.06,461.08 126.30,464.64 124.68,468.35 123.20,472.23 121.85,476.28 120.64,480.48 119.57,484.86 118.63,489.40 117.81,494.11 117.13,498.99 116.58,504.04 116.15,509.26 115.84,514.67 115.66,520.24 115.60,526.00" fill="none" stroke="#2563eb" stroke-width="4" stroke-linecap="round" stroke-linejoin="round" marker-end="url(#curve-arrow-0)" />
<polyline points="222.00,784.40 225.00,784.40 228.14,784.40 231.41,784.40 234.81,784.40 238.33,784.40 241.96,784.40 245.69,784.40 249.53,784.40 253.44,784.40 257.44,784.40 261.52,784.40 265.66,784.40 269.85,784.40 274.10,784.40 278.39,784.40 282.71,784.40 287.06,784.40 291.43,784.40 295.81,784.40 300.19,784.40 304.57,784.40 308.94,784.40 313.29,784.40 317.61,784.40 321.90,784.40 326.15,784.40 330.34,784.40 334.48,784.40 338.56,784.40 342.56,784.40 346.47,784.40 350.31,784.40 354.04,784.40 357.67,784.40 361.19,784.40 364.59,784.40 367.86,784.40 371.00,784.40 374.00,784.40" fill="none" stroke="#2563eb" stroke-width="4" stroke-linecap="round" stroke-linejoin="round" marker-end="url(#curve-arrow-0)" />
<polyline points="267.60,374.00 267.57,376.31 267.48,378.56 267.33,380.75 267.12,382.87 266.85,384.94 266.52,386.95 266.13,388.90 265.68,390.79 265.17,392.62 264.60,394.39 263.97,396.10 263.28,397.74 262.53,399.33 261.72,400.86 260.85,402.33 259.93,403.74 258.94,405.09 257.89,406.38 256.78,407.61 255.61,408.78 254.38,409.89 253.09,410.94 251.74,411.93 250.33,412.85 248.86,413.72 247.33,414.53 245.74,415.28 244.10,415.97 242.39,416.60 240.62,417.17 238.79,417.68 236.90,418.13 234.95,418.52 232.94,418.85 230.87,419.12 228.75,419.33 226.56,419.48 224.31,419.57 222.00,419.60" fill="none" stroke="#2563eb" stroke-width="4" stroke-linecap="round" stroke-linejoin="round" marker-end="url(#curve-arrow-0)" />
<polyline points="374.00,267.60 368.24,267.66 362.67,267.84 357.26,268.15 352.04,268.58 346.99,269.13 342.11,269.81 337.40,270.63 332.86,271.57 328.48,272.64 324.28,273.85 320.23,275.20 316.35,276.68 312.64,278.30 309.08,280.06 305.68,281.96 302.44,284.00 299.35,286.19 296.42,288.52 293.63,291.00 291.00,293.63 288.52,296.42 286.19,299.35 284.00,302.44 281.96,305.68 280.06,309.08 278.30,312.64 276.68,316.35 275.20,320.23 273.85,324.28 272.64,328.48 271.57,332.86 270.63,337.40 269.81,342.11 269.13,346.99 268.58,352.04 268.15,357.26 267.84,362.67 267.66,368.24 267.60,374.00" fill="none" stroke="#2563eb" stroke-width="4" stroke-linecap="round" stroke-linejoin="round" marker-end="url(#curve-arrow-0)" />
<polyline points="374.00,784.40 377.00,784.40 380.14,784.40 383.41,784.40 386.81,784.40 390.33,784.40 393.96,784.40 397.69,784.40 401.53,784.40 405.44,784.40 409.44,784.40 413.52,784.40 417.66,784.40 421.85,784.40 426.10,784.40 430.39,784.40 434.71,784.40 439.06,784.40 443.43,784.40 447.81,784.40 452.19,784.40 456.57,784.40 460.94,784.40 465.29,784.40 469.61,784.40 473.90,784.40 478.15,784.40 482.34,784.40 486.48,784.40 490.56,784.40 494.56,784.40 498.47,784.40 502.31,784.40 506.04,784.40 509.67,784.40 513.19,784.40 516.59,784.40 519.86,784.40 523.00,784.40 526.00,784.40" fill="none" stroke="#2563eb" stroke-width="4" stroke-linecap="round" stroke-linejoin="round" marker-end="url(#curve-arrow-0)" />
<polyline points="419.60,222.00 419.57,224.31 419.48,226.56 419.33,228.75 419.12,230.87 418.85,232.94 418.52,234.95 418.13,236.90 417.68,238.79 417.17,240.62 416.60,242.39 415.97,244.10 415.28,245.74 414.53,247.33 413.72,248.86 412.85,250.33 411.93,251.74 410.94,253.09 409.89,254.38 408.78,255.61 407.61,256.78 406.38,257.89 405.09,258.94 403.74,259.93 402.33,260.85 400.86,261.72 399.33,262.53 397.74,263.28 396.10,263.97 394.39,264.60 392.62,265.17 390.79,265.68 388.90,266.13 386.95,266.52 384.94,266.85 382.87,267.12 380.75,267.33 378.56,267.48 376.31,267.57 374.00,267.60" fill="none" stroke="#2563eb" stroke-width="4" stroke-linecap="round" stroke-linejoin="round" marker-end="url(#curve-arrow-0)" />
<polyline points="526.00,115.60 520.24,115.66 514.67,115.84 509.26,116.15 504.04,116.58 498.99,117.13 494.11,117.81 489.40,118.63 484.86,119.57 480.48,120.64 476.28,121.85 472.23,123.20 468.35,124.68 464.64,126.30 461.08,128.06 457.68,129.96 454.44,132.00 451.35,134.19 448.42,136.52 445.63,139.00 443.00,141.63 440.52,144.42 438.19,147.35 436.00,150.44 433.96,153.68 432.06,157.08 430.30,160.64 428.68,164.35 427.20,168.23 425.85,172.28 424.64,176.48 423.57,180.86 422.63,185.40 421.81,190.11 421.13,194.99 420.58,200.04 420.15,205.26 419.84,210.67 419.66,216.24 419.60,222.00" fill="none" stroke="#2563eb" stroke-width="4" stroke-linecap="round" stroke-linejoin="round" marker-end="url(#curve-arrow-0)" />
<polyline points="526.00,784.40 529.00,784.40 532.14,784.40 535.41,784.40 538.81,784.40 542.33,784.40 545.96,784.40 549.69,784.40 553.53,784.40 557.44,784.40 561.44,784.40 565.52,784.40 569.66,784.40 573.85,784.40 578.10,784.40 582.39,784.40 586.71,784.40 591.06,784.40 595.43,784.40 599.81,784.40 604.19,784.40 608.57,784.40 612.94,784.40 617.29,784.40 621.61,784.40 625.90,784.40 630.15,784.40 634.34,784.40 638.48,784.40 642.56,784.40 646.56,784.40 650.47,784.40 654.31,784.40 658.04,784.40 661.67,784.40 665.19,784.40 668.59,784.40 671.86,784.40 675.00,784.40 678.00,784.40" fill="none" stroke="#2563eb" stroke-width="4" stroke-linecap="round" stroke-linejoin="round" marker-end="url(#curve-arrow-0)" />
<polyline points="678.00,115.60 675.00,115.60 671.86,115.60 668.59,115.60 665.19,115.60 661.67,115.60 658.04,115.60 654.31,115.60 650.47,115.60 646.56,115.60 642.56,115.60 638.48,115.60 634.34,115.60 630.15,115.60 625.90,115.60 621.61,115.60 617.29,115.60 612.94,115.60 608.57,115.60 604.19,115.60 599.81,115.60 595.43,115.60 591.06,115.60 586.71,115.60 582.39,115.60 578.10,115.60 573.85,115.60 569.66,115.60 565.52,115.60 561.44,115.60 557.44,115.60 553.53,115.60 549.69,115.60 545.96,115.60 542.33,115.60 538.81,115.60 535.41,115.60 532.14,115.60 529.00,115.60 526.00,115.60" fill="none" stroke="#2563eb" stroke-width="4" stroke-linecap="round" stroke-linejoin="round" marker-end="url(#curve-arrow-0)" />
<polyline points="678.00,784.40 681.00,784.40 684.14,784.40 687.41,784.40 690.81,784.40 694.33,784.40 697.96,784.40 701.69,784.40 705.53,784.40 709.44,784.40 713.44,784.40 717.52,784.40 721.66,784.40 725.85,784.40 730.10,784.40 734.39,784.40 738.71,784.40 743.06,784.40 747.43,784.40 751.81,784.40 756.19,784.40 760.57,784.40 764.94,784.40 769.29,784.40 773.61,784.40 777.90,784.40 782.15,784.40 786.34,784.40 790.48,784.40 794.56,784.40 798.56,784.40 802.47,784.40 806.31,784.40 810.04,784.40 813.67,784.40 817.19,784.40 820.59,784.40 823.86,784.40 827.00,784.40 830.00,784.40" fill="none" stroke="#2563eb" stroke-width="4" stroke-linecap="round" stroke-linejoin="round" marker-end="url(#curve-arrow-0)" />
<polyline points="830.00,115.60 827.00,115.60 823.86,115.60 820.59,115.60 817.19,115.60 813.67,115.60 810.04,115.60 806.31,115.60 802.47,115.60 798.56,115.60 794.56,115.60 790.48,115.60 786.34,115.60 782.15,115.60 777.90,115.60 773.61,115.60 769.29,115.60 764.94,115.60 760.57,115.60 756.19,115.60 751.81,115.60 747.43,115.60 743.06,115.60 738.71,115.60 734.39,115.60 730.10,115.60 725.85,115.60 721.66,115.60 717.52,115.60 713.44,115.60 709.44,115.60 705.53,115.60 701.69,115.60 697.96,115.60 694.33,115.60 690.81,115.60 687.41,115.60 684.14,115.60 681.00,115.60 678.00,115.60" fill="none" stroke="#2563eb" stroke-width="4" stroke-linecap="round" stroke-linejoin="round" marker-end="url(#curve-arrow-0)" />
<polyline points="830.00,784.40 835.76,784.34 841.33,784.16 846.74,783.85 851.96,783.42 857.01,782.87 861.89,782.19 866.60,781.37 871.14,780.43 875.52,779.36 879.72,778.15 883.77,776.80 887.65,775.32 891.36,773.70 894.92,771.94 898.32,770.04 901.56,768.00 904.65,765.81 907.58,763.48 910.37,761.00 913.00,758.37 915.48,755.58 917.81,752.65 920.00,749.56 922.04,746.32 923.94,742.92 925.70,739.36 927.32,735.65 928.80,731.77 930.15,727.72 931.36,723.52 932.43,719.14 933.37,714.60 934.19,709.89 934.87,705.01 935.42,699.96 935.85,694.74 936.16,689.33 936.34,683.76 936.40,678.00" fill="none" stroke="#2563eb" stroke-width="4" stroke-linecap="round" stroke-linejoin="round" marker-end="url(#curve-arrow-0)" />
<polyline points="936.40,678.00 936.40,675.00 936.40,671.86 936.40,668.59 936.40,665.19 936.40,661.67 936.40,658.04 936.40,654.31 936.40,650.47 936.40,646.56 936.40,642.56 936.40,638.48 936.40,634.34 936.40,630.15 936.40,625.90 936.40,621.61 936.40,617.29 936.40,612.94 936.40,608.57 936.40,604.19 936.40,599.81 936.40,595.43 936.40,591.06 936.40,586.71 936.40,582.39 936.40,578.10 936.40,573.85 936.40,569.66 936.40,565.52 936.40,561.44 936.40,557.44 936.40,553.53 936.40,549.69 936.40,545.96 936.40,542.33 936.40,538.81 936.40,535.41 936.40,532.14 936.40,529.00 936.40,526.00" fill="none" stroke="#2563eb" stroke-width="4" stroke-linecap="round" stroke-linejoin="round" marker-end="url(#curve-arrow-0)" />
<polyline points="936.40,526.00 936.40,523.00 936.40,519.86 936.40,516.59 936.40,513.19 936.40,509.67 936.40,506.04 936.40,502.31 936.40,498.47 936.40,494.56 936.40,490.56 936.40,486.48 936.40,482.34 936.40,478.15 936.40,473.90 936.40,469.61 936.40,465.29 936.40,460.94 936.40,456.57 936.40,452.19 936.40,447.81 936.40,443.43 936.40,439.06 936.40,434.71 936.40,430.39 936.40,426.10 936.40,421.85 936.40,417.66 936.40,413.52 936.40,409.44 936.40,405.44 936.40,401.53 936.40,397.69 936.40,393.96 936.40,390.33 936.40,386.81 936.40,383.41 936.40,380.14 936.40,377.00 936.40,374.00" fill="none" stroke="#2563eb" stroke-width="4" stroke-linecap="round" stroke-linejoin="round" marker-end="url(#curve-arrow-0)" />
<polyline points="936.40,374.00 936.40,371.00 936.40,367.86 936.40,364.59 936.40,361.19 936.40,357.67 936.40,354.04 936.40,350.31 936.40,346.47 936.40,342.56 936.40,338.56 936.40,334.48 936.40,330.34 936.40,326.15 936.40,321.90 936.40,317.61 936.40,313.29 936.40,308.94 936.40,304.57 936.40,300.19 936.40,295.81 936.40,291.43 936.40,287.06 936.40,282.71 936.40,278.39 936.40,274.10 936.40,269.85 936.40,265.66 936.40,261.52 936.40,257.44 936.40,253.44 936.40,249.53 936.40,245.69 936.40,241.96 936.40,238.33 936.40,234.81 936.40,231.41 936.40,228.14 936.40,225.00 936.40,222.00" fill="none" stroke="#2563eb" stroke-width="4" stroke-linecap="round" stroke-linejoin="round" marker-end="url(#curve-arrow-0)" />
<polyline points="936.40,222.00 936.34,216.24 936.16,210.67 935.85,205.26 935.42,200.04 934.87,194.99 934.19,190.11 933.37,185.40 932.43,180.86 931.36,176.48 930.15,172.28 928.80,168.23 927.32,164.35 925.70,160.64 923.94,157.08 922.04,153.68 920.00,150.44 917.81,147.35 915.48,144.42 913.00,141.63 910.37,139.00 907.58,136.52 904.65,134.19 901.56,132.00 898.32,129.96 894.92,128.06 891.36,126.30 887.65,124.68 883.77,123.20 879.72,121.85 875.52,120.64 871.14,119.57 866.60,118.63 861.89,117.81 857.01,117.13 851.96,116.58 846.74,116.15 841.33,115.84 835.76,115.66 830.00,115.60" fill="none" stroke="#2563eb" stroke-width="4" stroke-linecap="round" stroke-linejoin="round" marker-end="url(#curve-arrow-0)" />
<polyline points="222.00,723.60 219.69,723.57 217.44,723.48 215.25,723.33 213.13,723.12 211.06,722.85 209.05,722.52 207.10,722.13 205.21,721.68 203.38,721.17 201.61,720.60 199.90,719.97 198.26,719.28 196.67,718.53 195.14,717.72 193.67,716.85 192.26,715.93 190.91,714.94 189.62,713.89 188.39,712.78 187.22,711.61 186.11,710.38 185.06,709.09 184.07,707.74 183.15,706.33 182.28,704.86 181.47,703.33 180.72,701.74 180.03,700.10 179.40,698.39 178.83,696.62 178.32,694.79 177.87,692.90 177.48,690.95 177.15,688.94 176.88,686.87 176.67,684.75 176.52,682.56 176.43,680.31 176.40,678.00" fill="none" stroke="#e11d48" stroke-width="4" stroke-linecap="round" stroke-linejoin="round" marker-end="url(#curve-arrow-1)" />
<polyline points="176.40,678.00 176.40,675.00 176.40,671.86 176.40,668.59 176.40,665.19 176.40,661.67 176.40,658.04 176.40,654.31 176.40,650.47 176.40,646.56 176.40,642.56 176.40,638.48 176.40,634.34 176.40,630.15 176.40,625.90 176.40,621.61 176.40,617.29 176.40,612.94 176.40,608.57 176.40,604.19 176.40,599.81 176.40,595.43 176.40,591.06 176.40,586.71 176.40,582.39 176.40,578.10 176.40,573.85 176.40,569.66 176.40,565.52 176.40,561.44 176.40,557.44 176.40,553.53 176.40,549.69 176.40,545.96 176.40,542.33 176.40,538.81 176.40,535.41 176.40,532.14 176.40,529.00 176.40,526.00" fill="none" stroke="#e11d48" stroke-width="4" stroke-linecap="round" stroke-linejoin="round" marker-end="url(#curve-arrow-1)" />
<polyline points="176.40,526.00 176.43,523.69 176.52,521.44 176.67,519.25 176.88,517.13 177.15,515.06 177.48,513.05 177.87,511.10 178.32,509.21 178.83,507.38 179.40,505.61 180.03,503.90 180.72,502.26 181.47,500.67 182.28,499.14 183.15,497.67 184.07,496.26 185.06,494.91 186.11,493.62 187.22,492.39 188.39,491.22 189.62,490.11 190.91,489.06 192.26,488.07 193.67,487.15 195.14,486.28 196.67,485.47 198.26,484.72 199.90,484.03 201.61,483.40 203.38,482.83 205.21,482.32 207.10,481.87 209.05,481.48 211.06,481.15 213.13,480.88 215.25,480.67 217.44,480.52 219.69,480.43 222.00,480.40" fill="none" stroke="#e11d48" stroke-width="4" stroke-linecap="round" stroke-linejoin="round" marker-end="url(#curve-arrow-1)" />
<polyline points="374.00,723.60 371.00,723.60 367.86,723.60 364.59,723.60 361.19,723.60 357.67,723.60 354.04,723.60 350.31,723.60 346.47,723.60 342.56,723.60 338.56,723.60 334.48,723.60 330.34,723.60 326.15,723.60 321.90,723.60 317.61,723.60 313.29,723.60 308.94,723.60 304.57,723.60 300.19,723.60 295.81,723.60 291.43,723.60 287.06,723.60 282.71,723.60 278.39,723.60 274.10,723.60 269.85,723.60 265.66,723.60 261.52,723.60 257.44,723.60 253.44,723.60 249.53,723.60 245.69,723.60 241.96,723.60 238.33,723.60 234.81,723.60 231.41,723.60 228.14,723.60 225.00,723.60 222.00,723.60" fill="none" stroke="#e11d48" stroke-width="4" stroke-linecap="round" stroke-linejoin="round" marker-end="url(#curve-arrow-1)" />
<polyline points="222.00,480.40 227.76,480.34 233.33,480.16 238.74,479.85 243.96,479.42 249.01,478.87 253.89,478.19 258.60,477.37 263.14,476.43 267.52,475.36 271.72,474.15 275.77,472.80 279.65,471.32 283.36,469.70 286.92,467.94 290.32,466.04 293.56,464.00 296.65,461.81 299.58,459.48 302.37,457.00 305.00,454.37 307.48,451.58 309.81,448.65 312.00,445.56 314.04,442.32 315.94,438.92 317.70,435.36 319.32,431.65 320.80,427.77 322.15,423.72 323.36,419.52 324.43,415.14 325.37,410.60 326.19,405.89 326.87,401.01 327.42,395.96 327.85,390.74 328.16,385.33 328.34,379.76 328.40,374.00" fill="none" stroke="#e11d48" stroke-width="4" stroke-linecap="round" stroke-linejoin="round" marker-end="url(#curve-arrow-1)" />
<polyline points="328.40,374.00 328.43,371.69 328.52,369.44 328.67,367.25 328.88,365.13 329.15,363.06 329.48,361.05 329.87,359.10 330.32,357.21 330.83,355.38 331.40,353.61 332.03,351.90 332.72,350.26 333.47,348.67 334.28,347.14 335.15,345.67 336.07,344.26 337.06,342.91 338.11,341.62 339.22,340.39 340.39,339.22 341.62,338.11 342.91,337.06 344.26,336.07 345.67,335.15 347.14,334.28 348.67,333.47 350.26,332.72 351.90,332.03 353.61,331.40 355.38,330.83 357.21,330.32 359.10,329.87 361.05,329.48 363.06,329.15 365.13,328.88 367.25,328.67 369.44,328.52 371.69,328.43 374.00,328.40" fill="none" stroke="#e11d48" stroke-width="4" stroke-linecap="round" stroke-linejoin="round" marker-end="url(#curve-arrow-1)" />
<polyline points="526.00,723.60 523.00,723.60 519.86,723.60 516.59,723.60 513.19,723.60 509.67,723.60 506.04,723.60 502.31,723.60 498.47,723.60 494.56,723.60 490.56,723.60 486.48,723.60 482.34,723.60 478.15,723.60 473.90,723.60 469.61,723.60 465.29,723.60 460.94,723.60 456.57,723.60 452.19,723.60 447.81,723.60 443.43,723.60 439.06,723.60 434.71,723.60 430.39,723.60 426.10,723.60 421.85,723.60 417.66,723.60 413.52,723.60 409.44,723.60 405.44,723.60 401.53,723.60 397.69,723.60 393.96,723.60 390.33,723.60 386.81,723.60 383.41,723.60 380.14,723.60 377.00,723.60 374.00,723.60" fill="none" stroke="#e11d48" stroke-width="4" stroke-linecap="round" stroke-linejoin="round" marker-end="url(#curve-arrow-1)" />
<polyline points="374.00,328.40 379.76,328.34 385.33,328.16 390.74,327.85 395.96,327.42 401.01,326.87 405.89,326.19 410.60,325.37 415.14,324.43 419.52,323.36 423.72,322.15 427.77,320.80 431.65,319.32 435.36,317.70 438.92,315.94 442.32,314.04 445.56,312.00 448.65,309.81 451.58,307.48 454.37,305.00 457.00,302.37 459.48,299.58 461.81,296.65 464.00,293.56 466.04,290.32 467.94,286.92 469.70,283.36 471.32,279.65 472.80,275.77 474.15,271.72 475.36,267.52 476.43,263.14 477.37,258.60 478.19,253.89 478.87,249.01 479.42,243.96 479.85,238.74 480.16,233.33 480.34,227.76 480.40,222.00" fill="none" stroke="#e11d48" stroke-width="4" stroke-linecap="round" stroke-linejoin="round" marker-end="url(#curve-arrow-1)" />
<polyline points="480.40,222.00 480.43,219.69 480.52,217.44 480.67,215.25 480.88,213.13 481.15,211.06 481.48,209.05 481.87,207.10 482.32,205.21 482.83,203.38 483.40,201.61 484.03,199.90 484.72,198.26 485.47,196.67 486.28,195.14 487.15,193.67 488.07,192.26 489.06,190.91 490.11,189.62 491.22,188.39 492.39,187.22 493.62,186.11 494.91,185.06 496.26,184.07 497.67,183.15 499.14,182.28 500.67,181.47 502.26,180.72 503.90,180.03 505.61,179.40 507.38,178.83 509.21,178.32 511.10,177.87 513.05,177.48 515.06,177.15 517.13,176.88 519.25,176.67 521.44,176.52 523.69,176.43 526.00,176.40" fill="none" stroke="#e11d48" stroke-width="4" stroke-linecap="round" stroke-linejoin="round" marker-end="url(#curve-arrow-1)" />
<polyline points="678.00,723.60 675.00,723.60 671.86,723.60 668.59,723.60 665.19,723.60 661.67,723.60 658.04,723.60 654.31,723.60 650.47,723.60 646.56,723.60 642.56,723.60 638.48,723.60 634.34,723.60 630.15,723.60 625.90,723.60 621.61,723.60 617.29,723.60 612.94,723.60 608.57,723.60 604.19,723.60 599.81,723.60 595.43,723.60 591.06,723.60 586.71,723.60 582.39,723.60 578.10,723.60 573.85,723.60 569.66,723.60 565.52,723.60 561.44,723.60 557.44,723.60 553.53,723.60 549.69,723.60 545.96,723.60 542.33,723.60 538.81,723.60 535.41,723.60 532.14,723.60 529.00,723.60 526.00,723.60" fill="none" stroke="#e11d48" stroke-width="4" stroke-linecap="round" stroke-linejoin="round" marker-end="url(#curve-arrow-1)" />
<polyline points="526.00,176.40 529.00,176.40 532.14,176.40 535.41,176.40 538.81,176.40 542.33,176.40 545.96,176.40 549.69,176.40 553.53,176.40 557.44,176.40 561.44,176.40 565.52,176.40 569.66,176.40 573.85,176.40 578.10,176.40 582.39,176.40 586.71,176.40 591.06,176.40 595.43,176.40 599.81,176.40 604.19,176.40 608.57,176.40 612.94,176.40 617.29,176.40 621.61,176.40 625.90,176.40 630.15,176.40 634.34,176.40 638.48,176.40 642.56,176.40 646.56,176.40 650.47,176.40 654.31,176.40 658.04,176.40 661.67,176.40 665.19,176.40 668.59,176.40 671.86,176.40 675.00,176.40 678.00,176.40" fill="none" stroke="#e11d48" stroke-width="4" stroke-linecap="round" stroke-linejoin="round" marker-end="url(#curve-arrow-1)" />
<polyline points="830.00,723.60 827.00,723.60 823.86,723.60 820.59,723.60 817.19,723.60 813.67,723.60 810.04,723.60 806.31,723.60 802.47,723.60 798.56,723.60 794.56,723.60 790.48,723.60 786.34,723.60 782.15,723.60 777.90,723.60 773.61,723.60 769.29,723.60 764.94,723.60 760.57,723.60 756.19,723.60 751.81,723.60 747.43,723.60 743.06,723.60 738.71,723.60 734.39,723.60 730.10,723.60 725.85,723.60 721.66,723.60 717.52,723.60 713.44,723.60 709.44,723.60 705.53,723.60 701.69,723.60 697.96,723.60 694.33,723.60 690.81,723.60 687.41,723.60 684.14,723.60 681.00,723.60 678.00,723.60" fill="none" stroke="#e11d48" stroke-width="4" stroke-linecap="round" stroke-linejoin="round" marker-end="url(#curve-arrow-1)" />
<polyline points="678.00,176.40 681.00,176.40 684.14,176.40 687.41,176.40 690.81,176.40 694.33,176.40 697.96,176.40 701.69,176.40 705.53,176.40 709.44,176.40 713.44,176.40 717.52,176.40 721.66,176.40 725.85,176.40 730.10,176.40 734.39,176.40 738.71,176.40 743.06,176.40 747.43,176.40 751.81,176.40 756.19,176.40 760.57,176.40 764.94,176.40 769.29,176.40 773.61,176.40 777.90,176.40 782.15,176.40 786.34,176.40 790.48,176.40 794.56,176.40 798.56,176.40 802.47,176.40 806.31,176.40 810.04,176.40 813.67,176.40 817.19,176.40 820.59,176.40 823.86,176.40 827.00,176.40 830.00,176.40" fill="none" stroke="#e11d48" stroke-width="4" stroke-linecap="round" stroke-linejoin="round" marker-end="url(#curve-arrow-1)" />
<polyline points="875.60,678.00 875.57,680.31 875.48,682.56 875.33,684.75 875.12,686.87 874.85,688.94 874.52,690.95 874.13,692.90 873.68,694.79 873.17,696.62 872.60,698.39 871.97,700.10 871.28,701.74 870.53,703.33 869.72,704.86 868.85,706.33 867.93,707.74 866.94,709.09 865.89,710.38 864.78,711.61 863.61,712.78 862.38,713.89 861.09,714.94 859.74,715.93 858.33,716.85 856.86,717.72 855.33,718.53 853.74,719.28 852.10,719.97 850.39,720.60 848.62,721.17 846.79,721.68 844.90,722.13 842.95,722.52 840.94,722.85 838.87,723.12 836.75,723.33 834.56,723.48 832.31,723.57 830.00,723.60" fill="none" stroke="#e11d48" stroke-width="4" stroke-linecap="round" stroke-linejoin="round" marker-end="url(#curve-arrow-1)" />
<polyline points="875.60,526.00 875.60,529.00 875.60,532.14 875.60,535.41 875.60,538.81 875.60,542.33 875.60,545.96 875.60,549.69 875.60,553.53 875.60,557.44 875.60,561.44 875.60,565.52 875.60,569.66 875.60,573.85 875.60,578.10 875.60,582.39 875.60,586.71 875.60,591.06 875.60,595.43 875.60,599.81 875.60,604.19 875.60,608.57 875.60,612.94 875.60,617.29 875.60,621.61 875.60,625.90 875.60,630.15 875.60,634.34 875.60,638.48 875.60,642.56 875.60,646.56 875.60,650.47 875.60,654.31 875.60,658.04 875.60,661.67 875.60,665.19 875.60,668.59 875.60,671.86 875.60,675.00 875.60,678.00" fill="none" stroke="#e11d48" stroke-width="4" stroke-linecap="round" stroke-linejoin="round" marker-end="url(#curve-arrow-1)" />
<polyline points="875.60,374.00 875.60,377.00 875.60,380.14 875.60,383.41 875.60,386.81 875.60,390.33 875.60,393.96 875.60,397.69 875.60,401.53 875.60,405.44 875.60,409.44 875.60,413.52 875.60,417.66 875.60,421.85 875.60,426.10 875.60,430.39 875.60,434.71 875.60,439.06 875.60,443.43 875.60,447.81 875.60,452.19 875.60,456.57 875.60,460.94 875.60,465.29 875.60,469.61 875.60,473.90 875.60,478.15 875.60,482.34 875.60,486.48 875.60,490.56 875.60,494.56 875.60,498.47 875.60,502.31 875.60,506.04 875.60,509.67 875.60,513.19 875.60,516.59 875.60,519.86 875.60,523.00 875.60,526.00" fill="none" stroke="#e11d48" stroke-width="4" stroke-linecap="round" stroke-linejoin="round" marker-end="url(#curve-arrow-1)" />
<polyline points="875.60,222.00 875.60,225.00 875.60,228.14 875.60,231.41 875.60,234.81 875.60,238.33 875.60,241.96 875.60,245.69 875.60,249.53 875.60,253.44 875.60,257.44 875.60,261.52 875.60,265.66 875.60,269.85 875.60,274.10 875.60,278.39 875.60,282.71 875.60,287.06 875.60,291.43 875.60,295.81 875.60,300.19 875.60,304.57 875.60,308.94 875.60,313.29 875.60,317.61 875.60,321.90 875.60,326.15 875.60,330.34 875.60,334.48 875.60,338.56 875.60,342.56 875.60,346.47 875.60,350.31 875.60,354.04 875.60,357.67 875.60,361.19 875.60,364.59 875.60,367.86 875.60,371.00 875.60,374.00" fill="none" stroke="#e11d48" stroke-width="4" stroke-linecap="round" stroke-linejoin="round" marker-end="url(#curve-arrow-1)" />
<polyline points="830.00,176.40 832.31,176.43 834.56,176.52 836.75,176.67 838.87,176.88 840.94,177.15 842.95,177.48 844.90,177.87 846.79,178.32 848.62,178.83 850.39,179.40 852.10,180.03 853.74,180.72 855.33,181.47 856.86,182.28 858.33,183.15 859.74,184.07 861.09,185.06 862.38,186.11 863.61,187.22 864.78,188.39 865.89,189.62 866.94,190.91 867.93,192.26 868.85,193.67 869.72,195.14 870.53,196.67 871.28,198.26 871.97,199.90 872.60,201.61 873.17,203.38 873.68,205.21 874.13,207.10 874.52,209.05 874.85,211.06 875.12,213.13 875.33,215.25 875.48,217.44 875.57,219.69 875.60,222.00" fill="none" stroke="#e11d48" stroke-width="4" stroke-linecap="round" stroke-linejoin="round" marker-end="url(#curve-arrow-1)" />
<text x="70" y="36" fill="#222222" font-size="22" font-family="monospace">Bezier Lane Curves From Tile Control Points [third]</text>
<text x="70" y="856" fill="#222222" font-size="15" font-family="monospace">Gray dashed: control polygon; Green/Red: p0/p3 control points; Colored arrows: lane direction p0 -> p3</text>
<text x="70" y="880" fill="#222222" font-size="14" font-family="monospace">Connected components (curve count): [18, 18]</text>
</svg>